<?xml version="1.0" standalone="no"?>
<!DOCTYPE svg PUBLIC "-//W3C//DTD SVG 20010904//EN"
 "http://www.w3.org/TR/2001/REC-SVG-20010904/DTD/svg10.dtd">
<svg version="1.0" xmlns="http://www.w3.org/2000/svg"
 width="256.000000pt" height="256.000000pt" viewBox="0 0 256.000000 256.000000"
 preserveAspectRatio="xMidYMid meet">
<metadata>
Created by potrace 1.14, written by Peter Selinger 2001-2017
</metadata>
<g transform="translate(0.000000,256.000000) scale(0.100000,-0.100000)"
fill="#000000" stroke="none">
<path d="M653 2503 c-7 -2 -10 -12 -7 -21 5 -15 4 -15 -6 1 -8 13 -15 15 -30
7 -31 -16 -63 -69 -68 -113 -3 -31 -14 -50 -52 -87 -27 -27 -53 -49 -59 -51
-6 -2 -12 -16 -13 -31 -1 -15 -6 -24 -10 -22 -10 6 -11 -10 -1 -20 14 -14 11
-37 -8 -46 -14 -8 -19 -7 -19 1 0 7 -3 9 -6 6 -4 -4 -2 -12 4 -19 13 -16 13
-27 0 -53 -8 -18 -8 -19 5 -2 16 19 32 23 20 5 -14 -24 -11 -39 10 -48 17 -7
18 -9 5 -9 -9 -1 -19 3 -23 9 -3 5 -12 7 -19 4 -8 -3 -17 0 -22 7 -5 9 -2 10
9 6 9 -3 19 -1 23 5 4 6 3 8 -2 5 -6 -3 -16 -2 -24 4 -13 7 -13 9 0 9 13 0 13
1 0 10 -13 8 -12 10 4 10 18 0 18 1 3 18 -15 16 -15 20 -1 40 8 12 12 22 9 22
-4 0 3 13 14 29 12 16 21 35 21 43 0 8 11 25 25 38 14 13 23 25 20 28 -10 11
-76 -43 -98 -81 -14 -23 -34 -51 -44 -62 -24 -25 -56 -115 -42 -115 6 0 8 -4
5 -9 -3 -4 0 -16 8 -26 11 -15 13 -16 13 -1 0 9 -3 16 -7 16 -3 0 -6 13 -6 30
0 31 8 32 12 2 2 -9 5 -26 8 -37 2 -11 5 -25 5 -31 1 -11 25 -38 58 -65 24
-19 56 -32 48 -19 -3 6 -2 10 3 10 5 0 9 7 9 15 0 18 -2 18 -29 4 -15 -8 -18
-8 -14 0 5 7 1 9 -11 5 -14 -5 -15 -4 -4 4 8 6 21 7 30 4 13 -5 14 -3 4 9 -10
12 -8 15 11 15 15 0 23 -6 22 -15 -1 -9 4 -15 11 -14 6 1 10 -5 8 -15 -1 -9
-8 -16 -14 -14 -17 3 -13 -15 4 -22 8 -3 15 -1 15 4 0 20 18 9 29 -17 17 -45
23 -93 10 -93 -6 0 -9 9 -6 20 3 11 0 23 -5 27 -7 3 -8 1 -4 -5 9 -15 -6 -16
-20 -2 -8 8 -15 6 -24 -5 -7 -9 -8 -15 -2 -15 6 0 12 3 15 8 2 4 2 2 1 -5 -2
-7 1 -15 6 -18 6 -4 10 0 10 7 0 7 6 4 12 -7 6 -11 16 -23 22 -27 8 -6 8 -8 0
-8 -6 0 -10 -10 -9 -22 1 -13 0 -15 -2 -5 -2 9 -9 15 -14 12 -13 -9 -31 4 -23
17 4 7 9 6 14 -2 4 -7 10 -8 13 -3 3 5 -3 15 -15 22 -15 9 -18 10 -13 0 5 -7
4 -10 -3 -5 -6 3 -14 1 -18 -5 -4 -7 -3 -9 4 -5 11 7 11 -19 -1 -30 -6 -6 -11
18 -8 38 0 4 -6 5 -14 2 -8 -4 -15 -2 -15 4 0 5 7 13 16 16 8 3 12 10 9 16 -7
12 -35 -12 -35 -30 0 -6 -4 -9 -9 -6 -4 3 -18 -5 -30 -18 -16 -17 -18 -23 -7
-23 8 0 13 4 10 9 -3 4 3 5 13 2 14 -4 15 -3 4 4 -9 7 -10 12 -2 16 6 4 11 3
11 -2 0 -6 6 -9 13 -8 6 0 13 -3 15 -9 2 -10 -13 -13 -73 -18 -20 -1 -31 -8
-33 -20 -2 -12 -9 -16 -19 -13 -11 5 -13 2 -9 -9 3 -9 2 -14 -3 -11 -10 6 -61
-56 -61 -74 0 -6 -5 -8 -10 -5 -6 4 -9 3 -8 -2 1 -4 -4 -19 -12 -33 -16 -28
-22 -52 -11 -46 7 5 14 -39 13 -81 0 -13 5 -20 10 -17 6 4 6 -1 -1 -13 -10
-20 -6 -33 10 -33 5 0 6 8 2 18 -3 9 -3 14 1 10 4 -3 9 -14 10 -23 1 -9 8 -20
15 -25 11 -6 11 -9 0 -15 -21 -13 -57 41 -53 81 1 19 -1 32 -5 30 -4 -3 -5 9
-3 26 3 19 1 29 -6 25 -8 -6 -10 -86 -2 -94 3 -3 7 -18 9 -32 0 -6 12 -22 25
-36 21 -22 28 -25 45 -15 14 7 21 7 21 0 0 -5 9 -10 20 -10 14 0 20 7 20 21 0
13 4 18 12 13 7 -4 8 -3 4 4 -4 7 4 24 19 39 24 27 24 28 7 43 -20 16 -23 85
-7 124 6 14 5 17 -3 12 -16 -9 -4 23 16 47 18 20 38 22 45 5 4 -10 6 -10 6 0
1 6 7 12 15 12 20 0 29 17 15 26 -8 5 -9 3 -4 -6 6 -10 4 -12 -8 -7 -10 3 -17
2 -17 -4 0 -6 -5 -7 -11 -3 -8 4 -3 11 12 20 13 7 27 10 31 8 5 -3 8 0 8 6 0
7 6 10 14 7 8 -3 17 -1 19 6 2 7 8 8 13 4 5 -4 2 -12 -6 -17 -8 -6 -10 -10 -5
-10 6 0 -10 -13 -34 -29 -37 -25 -48 -28 -65 -19 -19 10 -20 10 -7 -6 8 -9 10
-16 5 -14 -19 6 -37 -77 -19 -92 15 -13 12 -46 -3 -43 -6 2 -9 -4 -5 -13 5
-12 7 -13 14 -3 4 8 11 10 15 7 16 -17 42 12 39 44 -2 18 3 42 11 53 8 10 14
15 14 10 0 -6 4 -4 9 4 8 12 12 12 25 2 20 -17 21 -35 2 -28 -8 3 -20 0 -26
-8 -11 -13 -1 -15 52 -6 4 0 5 9 2 19 -4 13 -3 14 4 4 7 -11 11 -10 16 4 3 9
9 14 12 11 10 -10 73 43 69 56 -6 16 12 43 22 34 4 -5 1 -12 -7 -17 -8 -5 -12
-12 -8 -15 7 -7 58 52 58 67 0 6 -7 7 -16 4 -9 -3 -19 -6 -22 -6 -4 0 0 -4 8
-10 8 -5 11 -13 6 -17 -8 -7 -19 9 -16 23 1 3 -7 13 -18 22 -21 19 -39 70 -19
54 8 -7 24 2 49 29 22 22 30 36 20 33 -10 -4 -13 -2 -7 3 6 4 11 19 11 33 2
37 3 40 14 40 5 0 9 -11 8 -24 -1 -14 -6 -22 -10 -20 -4 3 -8 0 -8 -5 0 -6 4
-11 9 -11 5 0 9 -15 9 -32 -1 -18 -3 -27 -5 -20 -6 15 -33 16 -33 1 0 -5 6 -7
13 -3 7 5 6 0 -3 -11 -14 -17 -13 -18 2 -12 12 4 15 2 11 -8 -3 -8 -9 -13 -13
-10 -4 3 -13 -2 -20 -10 -10 -12 -10 -15 1 -15 11 0 11 -2 -1 -10 -8 -5 -10
-10 -4 -10 15 0 49 26 50 39 1 6 2 15 3 20 0 5 10 7 21 4 12 -3 20 0 20 7 0 7
-7 10 -16 6 -12 -4 -14 -1 -9 14 3 10 1 28 -4 39 -8 14 -8 21 2 24 9 4 9 6 -1
6 -10 1 -10 6 -2 21 8 14 8 20 0 20 -6 0 -8 5 -3 12 16 27 13 85 -6 106 -20
24 -52 32 -32 9 6 -8 8 -17 4 -21 -4 -4 0 -4 10 0 9 3 17 2 18 -2 0 -5 2 -17
4 -27 2 -9 -1 -15 -5 -12 -5 3 -12 0 -16 -6 -4 -7 -3 -9 2 -6 6 3 10 -5 10
-18 0 -13 -4 -21 -8 -19 -5 3 -6 10 -3 15 4 5 1 9 -5 9 -7 0 -9 8 -5 21 4 13
3 19 -2 16 -5 -4 -10 0 -11 8 -1 8 -3 22 -4 30 -1 8 -6 15 -12 15 -6 0 -4 5 5
10 19 11 17 56 -2 74 -9 8 -10 8 -5 -1 4 -7 2 -13 -4 -13 -6 0 -8 -5 -5 -10 4
-6 10 -8 14 -6 3 3 7 -4 7 -14 0 -13 -6 -17 -21 -13 -11 2 -26 5 -33 7 -7 1
-17 7 -24 14 -7 7 -17 8 -30 1 -10 -5 -18 -7 -18 -4 0 3 -11 -2 -25 -11 -28
-18 -41 -14 -31 12 5 14 9 14 23 3 12 -10 14 -10 9 -1 -4 6 -2 12 3 12 6 0 11
7 11 15 0 8 5 15 11 15 6 0 9 -8 6 -19 -4 -17 -2 -17 23 -5 26 14 28 20 21 88
-1 4 -7 6 -14 3 -8 -3 -14 1 -14 8 0 7 7 11 16 8 14 -4 14 -4 1 6 -13 9 -13
11 0 11 13 0 13 1 0 10 -8 5 -10 10 -4 10 5 0 16 -6 23 -12 11 -11 13 -10 9 2
-6 19 -44 20 -40 1 2 -9 -3 -11 -13 -7 -9 3 -13 2 -10 -4 8 -12 -5 -13 -24 -1
-11 7 -9 10 8 16 11 3 21 11 21 16 0 5 5 9 12 9 6 0 23 10 36 23 17 15 26 18
29 9 3 -6 9 -10 13 -7 5 3 7 12 4 20 -4 8 -10 13 -14 10 -5 -3 -7 7 -4 22 5
24 19 43 34 43 3 0 15 -15 28 -33 21 -30 21 -33 5 -44 -15 -12 -11 -17 9 -14
4 0 4 -9 -1 -22 -5 -12 -7 -32 -5 -44 2 -13 1 -23 -4 -24 -4 0 -15 -2 -25 -4
-12 -2 -21 5 -28 22 -10 26 -19 26 -23 1 -1 -7 -5 -18 -9 -25 -4 -6 -3 -14 2
-18 6 -3 8 -12 5 -19 -3 -8 6 -17 23 -24 23 -8 33 -6 52 9 13 11 29 19 35 19
18 0 57 48 46 55 -6 4 -10 2 -10 -2 0 -5 -7 -18 -15 -29 -12 -14 -12 -10 2 16
9 19 16 39 15 43 -1 5 2 6 8 2 7 -4 9 4 5 24 -3 16 -1 33 5 36 6 4 7 -1 3 -11
-5 -13 -3 -15 8 -9 11 7 12 6 2 -7 -7 -8 -10 -18 -6 -21 3 -4 0 -14 -8 -23
-12 -15 -12 -17 1 -12 16 5 32 67 22 83 -4 5 -7 36 -7 68 1 53 -2 62 -32 93
-18 20 -33 39 -33 43 0 11 -43 29 -57 24z m42 -41 c-2 -9 -4 -19 -4 -21 -1 -2
-8 2 -16 9 -12 10 -13 16 -4 26 14 17 28 9 24 -14z m33 -21 c-2 -5 8 -19 22
-31 14 -13 18 -21 9 -17 -9 3 -23 0 -30 -6 -11 -10 -11 -9 -1 5 9 11 10 18 2
23 -5 3 -10 0 -10 -7 0 -10 -2 -10 -9 1 -10 16 -4 41 10 41 5 0 8 -4 7 -9z
m31 -83 c-7 -13 -6 -18 3 -19 10 0 10 -2 -1 -6 -11 -5 -11 -7 0 -14 12 -7 11
-9 -1 -9 -12 0 -12 -2 -2 -9 11 -7 11 -9 -1 -14 -11 -4 -14 4 -12 39 1 27 -2
41 -8 37 -6 -3 -7 -2 -4 4 3 5 13 10 21 10 11 0 13 -5 5 -19z m-236 -187 c10
-4 18 -11 18 -16 -1 -6 4 -10 9 -10 6 0 10 -4 9 -10 -1 -5 -5 -9 -9 -8 -4 1
-10 -4 -13 -11 -4 -9 0 -12 12 -9 11 3 18 -1 18 -10 0 -16 -13 -17 -36 -3 -10
7 -19 3 -28 -11 -19 -28 -51 -20 -47 13 3 34 27 84 39 83 5 0 18 -4 28 -8z
m-113 -76 c0 -8 -4 -15 -8 -15 -5 0 -9 7 -9 15 0 8 4 15 9 15 4 0 8 -7 8 -15z
m157 -157 c12 -12 23 -30 25 -38 2 -8 8 -20 15 -28 9 -9 9 -20 2 -40 -6 -15
-10 -28 -10 -29 4 -14 -1 -23 -10 -17 -8 4 -9 -1 -5 -17 3 -13 -7 3 -23 36
-16 33 -26 66 -23 74 3 9 1 12 -5 8 -7 -5 -9 1 -6 15 3 15 2 19 -4 11 -6 -9
-14 -3 -25 22 -8 19 -12 35 -8 35 5 0 11 -6 13 -12 3 -8 6 -6 6 5 1 21 24 12
58 -25z m-195 18 c10 5 10 4 2 -5 -12 -13 -44 -5 -44 11 0 6 6 5 15 -2 8 -6
20 -8 27 -4z m302 -258 c-3 -4 -9 -8 -15 -8 -5 0 -9 4 -9 8 0 5 7 9 15 9 8 0
12 -4 9 -9z m-420 -214 c3 -8 2 -12 -4 -9 -6 3 -10 10 -10 16 0 14 7 11 14 -7z"/>
<path d="M675 2471 c-3 -5 -2 -12 3 -15 5 -3 9 1 9 9 0 17 -3 19 -12 6z"/>
<path d="M495 2150 c5 -16 3 -19 -12 -14 -14 5 -15 4 -3 -4 8 -6 18 -8 24 -5
5 3 6 1 2 -5 -4 -6 -13 -9 -21 -5 -11 4 -14 -1 -12 -16 2 -11 7 -24 12 -28 4
-5 5 -3 2 3 -7 12 28 46 38 36 3 -4 3 2 -1 12 -6 15 -4 17 7 11 8 -5 5 1 -5
13 -24 27 -39 28 -31 2z"/>
<path d="M517 1953 c-11 -10 -8 -35 3 -28 6 4 7 12 4 18 -4 7 -3 8 2 4 5 -5
10 -13 10 -18 1 -5 3 -10 4 -11 1 -2 3 -16 4 -33 1 -20 7 -30 18 -30 9 0 20
-4 25 -8 4 -5 2 -7 -6 -5 -15 3 -23 -23 -11 -42 6 -9 11 -7 19 9 7 11 9 21 5
21 -3 0 0 8 7 17 10 11 10 14 2 9 -13 -7 -14 -7 -18 33 -1 13 -15 34 -30 47
-32 27 -30 26 -38 17z m48 -41 c-3 -3 -11 0 -18 7 -9 10 -8 11 6 5 10 -3 15
-9 12 -12z m4 -34 c-5 -10 -11 -18 -12 -18 -2 0 -3 8 -3 18 0 10 6 19 13 19 8
0 9 -6 2 -19z m16 -47 c3 -5 2 -12 -3 -15 -5 -3 -9 1 -9 9 0 17 3 19 12 6z"/>
<path d="M2045 2440 c-6 -10 -3 -12 25 -14 16 -2 16 -9 5 -39 -5 -12 -3 -17 5
-15 7 2 15 -4 17 -12 3 -11 2 -12 -4 -2 -7 10 -14 8 -28 -8 -18 -20 -18 -20 5
-18 15 2 24 -3 25 -14 2 -11 -2 -15 -12 -11 -12 5 -12 7 -1 15 10 8 10 9 -2 5
-8 -2 -14 -10 -12 -16 1 -6 -3 -11 -9 -11 -5 0 -8 -4 -4 -9 3 -5 0 -13 -6 -17
-7 -4 -9 -3 -5 4 3 6 1 14 -5 18 -8 4 -9 3 -5 -4 3 -6 -2 -16 -13 -22 -13 -7
-22 -7 -26 0 -3 5 0 10 8 10 8 0 18 7 21 16 3 8 11 12 18 8 8 -5 9 0 6 14 -4
12 -2 24 2 27 5 3 7 13 6 23 -2 9 2 20 8 24 6 4 7 10 3 14 -4 4 -13 2 -19 -4
-15 -15 -28 -15 -28 -1 0 5 4 8 9 4 5 -3 12 -1 15 4 3 5 -1 11 -9 15 -8 3 -15
1 -15 -4 0 -16 -47 -60 -55 -52 -5 4 -5 1 -1 -5 7 -13 -2 -16 -34 -14 -20 1
-42 -17 -65 -53 -19 -29 -24 -43 -28 -80 -1 -11 -10 -20 -20 -22 -10 -1 -25
-11 -32 -21 -21 -28 -6 -31 17 -3 l20 25 -16 -27 c-9 -16 -12 -28 -7 -28 6 0
15 9 21 20 6 11 16 17 22 14 7 -5 9 -2 5 9 -4 12 -2 14 11 10 15 -6 15 -4 4 9
-10 13 -11 22 -2 38 6 11 8 26 4 33 -5 8 -2 7 9 -2 17 -14 24 -37 8 -27 -5 3
-11 -1 -14 -9 -4 -9 -1 -12 8 -9 12 5 32 -30 27 -49 -1 -5 8 -7 20 -5 13 2 22
8 21 15 -1 6 6 18 16 27 23 21 17 50 -14 70 -19 13 -25 13 -34 2 -6 -7 -10
-15 -8 -17 1 -2 -5 3 -14 11 -15 14 -15 16 2 25 10 6 17 14 16 19 -1 6 10 11
25 11 18 1 25 -2 21 -12 -7 -19 12 -16 28 5 13 16 13 16 -5 2 -18 -14 -19 -14
-7 8 10 18 14 20 25 10 10 -10 11 -15 2 -20 -10 -7 -2 -12 16 -9 16 2 -4 -27
-25 -37 -12 -6 -16 -11 -9 -11 7 -1 11 -5 8 -9 -2 -4 -1 -14 4 -22 7 -12 11
-12 26 1 15 12 16 12 9 0 -5 -10 -4 -12 3 -7 8 5 10 2 6 -8 -3 -9 -10 -16 -16
-16 -5 0 -6 -5 -2 -11 4 -8 1 -8 -12 -2 -14 7 -24 4 -41 -14 -13 -13 -23 -27
-23 -31 -1 -16 -12 -42 -18 -42 -4 0 -16 6 -27 13 -26 17 -94 15 -105 -4 -5
-8 -14 -14 -20 -14 -6 0 -14 -4 -18 -10 -4 -5 -13 -10 -19 -10 -7 0 -12 -4
-10 -10 1 -5 6 -9 11 -7 5 2 12 -2 16 -8 5 -8 9 -6 13 5 5 11 3 14 -6 9 -6 -4
-8 -3 -4 1 4 5 14 10 23 11 12 2 13 -1 3 -12 -6 -8 -8 -14 -3 -14 4 0 -1 -7
-12 -16 -15 -12 -15 -14 -2 -11 11 4 15 0 14 -11 -2 -9 -9 -17 -17 -17 -8 0
-13 6 -11 13 1 9 -2 11 -10 6 -9 -6 -9 -3 1 9 11 14 11 17 -1 17 -8 0 -14 -10
-14 -24 0 -14 4 -22 8 -20 4 3 8 -1 8 -9 0 -17 -33 -16 -54 2 -13 11 -16 11
-16 0 0 -11 -2 -11 -8 -2 -4 7 -19 15 -32 17 -14 2 -25 5 -25 7 0 1 -16 3 -36
4 -19 1 -41 5 -47 9 -7 4 -12 5 -12 1 0 -3 -16 2 -36 10 -20 8 -40 13 -44 10
-5 -3 -11 -1 -15 5 -9 14 -48 13 -43 -2 2 -6 10 -14 18 -16 7 -3 10 0 6 7 -4
6 -5 11 -2 11 3 0 10 -9 16 -20 10 -18 8 -19 -13 -11 -18 7 -29 5 -43 -7 -17
-16 -17 -16 0 6 11 12 14 22 8 22 -7 0 -9 7 -5 17 6 15 5 16 -9 3 -8 -8 -14
-20 -11 -26 2 -7 0 -15 -6 -19 -7 -4 -8 0 -4 11 4 10 2 15 -3 11 -6 -3 -11 4
-11 16 -2 15 0 18 6 8 6 -9 11 -10 15 -2 10 16 -35 31 -56 19 -10 -5 -18 -6
-18 -2 0 3 -7 1 -15 -6 -8 -7 -15 -10 -15 -6 0 8 -83 -34 -91 -46 -3 -5 -9 -8
-12 -6 -3 1 -22 -13 -43 -32 -22 -19 -41 -35 -44 -35 -3 0 -4 -4 -2 -10 2 -5
-2 -5 -9 2 -15 14 -39 6 -39 -14 0 -11 3 -13 13 -5 19 16 46 -3 30 -19 -15
-15 -46 -21 -38 -8 4 5 -8 7 -24 5 -18 -2 -28 1 -25 6 4 6 -5 2 -20 -7 -29
-19 -34 -35 -11 -35 8 0 15 -5 15 -10 0 -7 -6 -7 -19 -1 -10 6 -22 7 -26 3 -5
-4 -5 0 0 8 5 8 -10 -4 -33 -27 -30 -29 -40 -47 -36 -60 4 -13 3 -14 -4 -5
-13 19 -25 17 -32 -4 -5 -14 -9 -11 -19 14 -8 18 -17 32 -22 32 -12 0 -11 -5
6 -47 17 -39 13 -68 -10 -77 -8 -3 -12 -12 -9 -21 3 -8 2 -15 -3 -15 -4 0 -14
-9 -21 -21 -11 -17 -11 -24 0 -37 11 -15 11 -15 -2 -6 -8 5 -21 9 -27 8 -7 -1
-17 -2 -22 -3 -4 0 -31 -19 -58 -41 -28 -22 -52 -38 -54 -36 -2 2 -15 -11 -28
-28 l-25 -31 25 20 c50 42 57 46 64 35 4 -6 2 -9 -3 -8 -5 2 -25 -8 -43 -21
-31 -23 -94 -38 -83 -20 2 4 -1 11 -6 14 -8 5 -6 13 6 26 9 10 21 16 27 12 6
-3 7 -1 3 5 -5 9 -12 8 -26 -1 -11 -6 -20 -14 -21 -17 -7 -38 -3 -66 12 -81
18 -18 18 -19 2 -19 -16 0 -16 -2 -3 -11 12 -9 11 -10 -8 -6 -25 6 -27 -4 -11
-36 7 -12 8 -19 4 -14 -5 4 -20 -3 -34 -15 -14 -13 -20 -15 -12 -6 7 9 10 22
6 27 -4 7 0 8 11 4 11 -4 15 -2 12 7 -8 25 -22 19 -58 -23 -19 -22 -29 -37
-22 -33 6 4 12 2 12 -3 0 -6 -7 -11 -15 -11 -8 0 -15 -5 -15 -11 0 -5 4 -8 8
-5 5 3 9 -1 9 -9 0 -8 -4 -12 -9 -9 -4 3 -8 2 -8 -3 1 -12 26 -43 32 -38 2 3
5 -2 5 -10 0 -22 -12 -18 -24 8 -10 19 -11 18 -8 -13 2 -19 4 -36 5 -37 2 -3
6 -16 9 -30 1 -5 5 -2 10 6 7 10 5 19 -6 26 -14 10 -12 12 8 10 13 -1 33 2 44
8 13 7 20 6 23 -2 2 -6 9 -8 14 -5 7 4 8 2 4 -4 -4 -7 -2 -13 3 -13 6 -1 16
-3 21 -4 6 -1 18 -3 28 -4 14 -1 15 -3 2 -11 -9 -6 -17 -5 -22 3 -4 7 -8 8 -8
4 0 -4 -8 -3 -18 2 -13 7 -23 6 -30 -1 -17 -17 -15 -33 1 -19 10 8 14 7 14 -4
0 -7 -3 -14 -6 -13 -21 2 -23 -4 -4 -17 14 -10 20 -22 16 -31 -5 -14 -3 -15
16 -5 17 9 21 9 19 -1 -2 -7 3 -12 10 -10 8 1 11 -1 8 -6 -3 -5 6 -15 19 -22
14 -7 25 -18 25 -24 0 -6 5 -4 10 4 7 11 10 11 10 2 0 -7 4 -11 8 -8 4 2 9 -5
9 -17 2 -16 0 -18 -7 -8 -4 8 -17 16 -27 17 -9 2 -19 8 -21 14 -2 5 -7 8 -12
5 -4 -3 -15 6 -24 20 -9 14 -22 25 -28 25 -6 0 -8 -3 -5 -7 4 -3 2 -12 -4 -19
-8 -10 -5 -17 10 -30 11 -10 18 -22 15 -26 -12 -20 78 -89 104 -80 10 3 10 7
0 20 -7 10 4 4 25 -11 20 -15 42 -25 49 -21 7 5 8 3 3 -6 -6 -10 -3 -12 11 -7
18 7 18 6 2 -7 -10 -7 -18 -17 -18 -22 0 -7 52 -44 70 -49 3 -1 13 -5 23 -8
30 -12 47 -17 51 -14 1 1 10 -4 19 -11 16 -14 29 -3 24 20 -2 7 -2 10 0 6 2
-4 10 -5 17 -2 19 7 37 -19 26 -36 -9 -13 -10 -13 -11 0 -1 8 -1 18 0 23 2 14
-17 7 -23 -9 -8 -20 -8 -24 2 -23 4 1 10 0 15 -1 4 -1 12 -3 19 -4 13 -1 17
-65 6 -96 -5 -13 -13 -18 -19 -14 -8 4 -9 3 -5 -5 4 -6 1 -14 -7 -17 -8 -3
-17 -14 -20 -25 -3 -11 -1 -17 5 -13 6 4 8 -1 4 -13 -9 -27 28 -51 76 -51 20
0 41 -3 47 -6 5 -4 13 -1 16 5 4 5 14 8 22 5 8 -3 12 -2 9 3 -3 5 1 12 10 15
10 4 13 2 8 -7 -5 -8 -2 -8 9 2 9 7 15 17 12 20 -2 4 12 8 31 8 20 0 39 5 44
12 4 7 24 14 43 15 34 3 48 -8 51 -36 1 -5 6 -7 11 -5 6 1 8 7 6 12 -2 6 -4
20 -4 31 1 22 -25 28 -39 9 -12 -15 -10 7 2 25 7 12 10 12 10 1 0 -7 6 -11 14
-8 8 3 22 -3 31 -13 10 -11 21 -17 26 -15 4 3 10 1 14 -5 4 -6 12 -7 18 -3 8
5 8 2 -1 -9 -10 -13 -9 -18 5 -29 15 -12 16 -12 10 3 -3 9 0 21 7 27 18 15 45
-17 40 -47 -3 -16 0 -22 8 -19 8 2 12 15 10 30 -2 15 1 27 8 27 6 0 9 -4 6 -9
-8 -12 5 -45 13 -34 3 4 15 13 26 19 11 6 20 20 21 30 0 10 4 27 8 37 5 10 3
23 -4 32 -10 12 -10 15 3 15 9 0 23 10 32 23 8 12 18 20 21 19 3 -2 9 0 12 4
4 4 1 4 -5 0 -8 -4 -13 -2 -13 6 0 9 -3 9 -10 -2 -7 -11 -10 -11 -10 -2 0 7
-4 11 -9 7 -5 -3 -13 0 -17 6 -5 8 -3 9 6 4 9 -6 12 -4 8 7 -4 8 -2 21 2 29 7
11 13 10 29 -5 21 -20 30 -9 10 11 -8 8 -7 17 5 34 9 13 16 18 16 11 0 -8 5
-10 13 -6 7 5 6 0 -3 -11 -14 -17 -13 -18 5 -11 16 6 17 5 8 -5 -10 -10 -15
-9 -28 1 -8 7 -15 8 -15 2 0 -13 22 -28 40 -26 8 1 22 2 30 3 11 1 11 4 2 13
-18 18 -15 23 16 37 l27 12 -25 -21 c-14 -11 -20 -20 -14 -20 6 0 21 11 33 24
28 30 12 42 -27 22 -26 -13 -32 -13 -48 -1 -15 12 -16 14 -2 9 13 -4 15 -1 11
18 -5 19 -3 21 8 11 20 -20 31 -15 19 7 -8 16 -8 20 2 18 7 -2 12 3 10 10 -1
8 2 11 8 7 9 -5 14 7 12 27 -1 3 5 9 13 12 10 3 12 0 9 -12 -4 -12 1 -10 15 7
25 28 28 49 4 30 -15 -13 -15 -12 -2 9 8 12 15 18 17 12 2 -5 8 -10 13 -10 6
0 7 5 4 10 -10 16 4 11 23 -8 18 -18 18 -19 -2 -28 -12 -5 -21 -16 -21 -25 0
-19 -36 -69 -49 -69 -5 0 0 10 12 23 12 13 19 27 15 30 -10 10 -25 8 -19 -2 7
-11 -18 -33 -34 -29 -7 2 -15 -3 -17 -10 -3 -8 1 -10 14 -6 16 6 16 5 -2 -9
-18 -14 -18 -15 11 -13 17 0 37 8 45 16 21 22 51 70 43 70 -3 0 4 9 17 20 22
18 23 21 7 30 -9 6 -15 17 -12 24 4 9 -2 13 -20 11 -15 -2 -24 1 -21 5 3 5 12
7 20 3 14 -5 21 13 16 40 -1 5 3 6 8 3 5 -4 12 3 16 14 3 11 11 19 17 17 6 -1
13 4 16 12 3 9 0 11 -8 6 -8 -5 -11 -4 -6 3 4 6 13 9 22 5 12 -4 12 -8 2 -21
-11 -13 -10 -15 4 -9 10 3 20 1 24 -5 4 -7 3 -8 -4 -4 -7 4 -12 0 -13 -11 0
-11 -3 -13 -6 -5 -4 10 -8 10 -19 1 -8 -6 -14 -16 -14 -21 0 -6 7 -5 15 2 8 7
15 9 15 5 0 -4 7 -2 15 5 17 14 36 5 29 -14 -3 -8 -1 -17 5 -21 7 -4 8 1 4 12
-5 14 -3 16 7 6 16 -15 5 -47 -12 -37 -9 5 -9 3 1 -9 7 -9 10 -17 6 -17 -4 0
-3 -6 4 -13 6 -8 9 -23 6 -35 -2 -11 3 -26 11 -33 8 -6 14 -19 14 -27 0 -13
-3 -12 -16 4 -15 18 -15 17 -2 -6 8 -14 14 -33 13 -42 -2 -11 3 -15 15 -13 15
3 18 -2 15 -31 -1 -19 2 -37 6 -40 5 -3 9 -10 9 -15 0 -6 -5 -7 -10 -4 -6 3
-14 -2 -18 -12 -4 -10 -14 -19 -22 -21 -36 -8 -66 -8 -77 1 -7 5 -13 6 -13 2
0 -5 -9 0 -20 10 -11 10 -20 24 -20 32 0 10 -4 11 -19 1 -10 -6 -17 -18 -13
-26 4 -12 1 -12 -15 -3 -16 8 -24 7 -33 -4 -7 -8 -17 -12 -23 -8 -6 4 -7 1 -2
-7 6 -10 4 -12 -7 -7 -17 6 -19 -16 -3 -30 4 -4 5 -2 1 5 -6 9 -2 12 10 10 10
-2 19 3 20 10 3 26 5 26 19 2 8 -14 14 -19 15 -12 0 6 5 12 11 12 5 0 7 -5 4
-10 -8 -12 42 -33 58 -23 7 4 8 0 4 -11 -4 -10 -3 -15 3 -11 6 4 9 1 8 -6 -2
-6 4 -14 12 -16 9 -3 11 -1 5 4 -5 4 -12 17 -13 27 -3 16 -1 18 11 8 7 -6 17
-9 20 -5 4 3 7 1 7 -6 0 -7 4 -9 10 -6 6 4 7 -1 3 -11 -4 -11 -8 -13 -11 -6
-2 7 -9 12 -14 12 -6 0 -9 -3 -6 -6 4 -3 2 -18 -2 -34 -8 -28 -7 -29 18 -19
15 6 30 16 35 22 4 7 5 0 1 -16 -4 -19 -2 -27 7 -27 8 0 23 -8 34 -17 l20 -16
-20 8 c-11 4 -28 7 -37 7 -12 -1 -18 7 -19 21 -1 15 -3 17 -6 6 -5 -22 -40
-13 -54 13 -9 16 -8 19 3 13 7 -3 4 1 -6 9 -11 9 -16 16 -12 16 20 0 -19 29
-60 45 -45 17 -46 17 -77 -5 -27 -21 -30 -21 -23 -4 5 12 4 15 -2 9 -6 -5 -8
-25 -5 -43 4 -26 9 -31 24 -27 11 4 19 2 19 -5 0 -6 5 -8 12 -4 7 4 8 3 4 -5
-4 -6 -12 -9 -17 -6 -15 10 -22 -21 -10 -44 8 -14 8 -22 1 -26 -8 -5 -7 -11 0
-20 7 -8 9 -18 6 -24 -3 -5 0 -12 6 -14 10 -4 10 -6 1 -6 -7 -1 -13 -6 -13
-11 0 -6 6 -9 13 -8 6 2 11 -2 10 -9 -1 -6 4 -17 12 -23 8 -7 15 -21 15 -31 0
-11 5 -20 10 -20 39 -5 57 -4 67 3 6 5 14 5 18 -2 10 -17 -3 -28 -30 -25 -14
2 -25 -2 -25 -8 0 -7 -5 -4 -11 6 -8 14 -14 16 -25 6 -12 -10 -13 -9 -7 7 6
17 5 18 -13 4 -17 -13 -18 -13 -8 0 13 17 15 50 3 50 -4 0 -11 -4 -14 -10 -3
-5 -1 -10 5 -10 6 0 8 -5 5 -11 -5 -6 -13 -3 -22 10 -8 12 -21 21 -29 21 -8 0
2 -17 26 -41 31 -33 47 -41 80 -43 24 -2 40 2 40 8 0 6 5 4 10 -4 7 -11 10
-11 10 -2 0 7 4 11 9 8 14 -9 42 5 34 17 -3 6 -1 7 5 3 7 -4 12 -2 12 4 0 7 5
6 14 -2 8 -7 12 -16 10 -20 -2 -4 1 -10 7 -14 8 -4 9 -3 5 4 -4 7 -2 12 4 12
6 0 8 5 5 10 -4 6 -3 9 2 8 4 -1 18 3 31 10 12 7 28 10 34 6 8 -5 9 -2 5 10
-4 10 -3 15 3 11 7 -4 9 5 5 24 -3 16 -1 33 5 36 6 4 0 26 -16 57 -27 54 -26
60 9 63 16 1 22 8 23 26 0 37 19 63 38 56 19 -8 56 8 56 23 0 6 -8 10 -17 10
-16 1 -16 2 2 17 16 13 17 15 3 10 -10 -4 -18 -2 -18 3 0 6 4 10 9 10 6 0 9 9
8 20 -1 11 -4 20 -7 20 -3 0 -6 9 -7 20 -1 12 4 20 13 20 11 0 13 -6 9 -21 -4
-13 -3 -19 2 -16 6 4 10 -27 10 -74 0 -69 -2 -79 -16 -74 -9 4 -20 8 -26 9 -5
1 -15 5 -21 9 -16 9 -27 -22 -14 -38 8 -10 6 -17 -7 -27 -24 -18 -40 -49 -35
-70 4 -20 17 -24 27 -8 4 6 15 4 30 -6 28 -18 53 -10 35 11 -9 11 -8 19 2 33
13 19 14 19 43 -4 25 -20 27 -24 11 -24 -10 0 -24 7 -30 16 -9 12 -11 7 -11
-25 0 -43 9 -61 18 -36 4 8 2 15 -4 15 -6 0 -7 5 -4 10 3 6 17 8 31 6 13 -3
22 -1 19 3 -2 5 20 8 49 7 43 -1 53 1 51 14 -2 8 -4 19 -4 23 -1 5 -6 5 -12 1
-8 -4 -7 -9 2 -15 9 -5 2 -7 -18 -4 -21 2 -33 -1 -33 -8 0 -7 -4 -6 -9 3 -6 8
-8 17 -6 20 2 4 -9 6 -24 5 -21 -1 -28 2 -24 12 3 7 0 13 -7 13 -6 0 -8 6 -4
13 4 6 4 9 -1 5 -4 -4 -14 -3 -22 3 -7 6 -13 8 -13 3 0 -10 -20 17 -20 28 0
15 55 -16 84 -46 16 -17 31 -30 33 -29 24 16 66 33 72 28 5 -3 12 1 14 7 4 10
6 10 6 1 1 -7 6 -13 13 -13 6 0 8 3 5 6 -7 7 30 65 50 77 7 4 10 14 7 22 -4 8
0 17 8 20 10 4 14 21 13 55 -1 27 2 47 7 44 4 -3 8 0 8 5 0 6 -6 11 -13 11 -8
0 -13 9 -12 23 2 12 8 21 14 19 19 -4 12 14 -16 39 l-28 24 20 -24 20 -24 -27
17 c-24 16 -29 16 -56 2 -27 -14 -30 -14 -34 2 -6 24 14 60 31 54 9 -3 11 0 6
8 -5 8 -4 11 3 6 6 -3 16 3 22 14 6 11 17 20 25 20 7 0 16 6 18 13 4 9 6 9 6
-1 1 -7 -5 -15 -13 -18 -8 -3 -12 -12 -9 -20 4 -11 7 -11 20 1 17 17 13 61 -4
58 -7 -2 -10 4 -7 12 4 8 11 15 18 15 6 0 4 5 -4 10 -9 6 -10 10 -3 10 11 0
11 11 1 88 -1 6 -5 12 -10 12 -4 0 -8 8 -8 18 1 16 1 16 11 -1 6 -9 15 -14 21
-11 6 4 8 2 4 -4 -3 -6 -2 -13 4 -17 5 -3 10 1 10 9 0 8 -9 20 -20 26 -11 6
-20 16 -20 22 0 6 -7 20 -16 30 -14 14 -14 20 -4 33 7 8 15 13 19 11 3 -2 14
2 24 9 16 12 16 13 0 26 -15 12 -16 12 -9 -6 4 -11 4 -16 0 -12 -4 4 -13 2
-21 -4 -10 -9 -13 -8 -13 0 0 7 -4 10 -10 6 -5 -3 -7 -13 -4 -23 5 -14 4 -14
-4 -2 -6 8 -8 18 -6 22 3 4 1 8 -3 8 -5 0 -9 9 -10 20 -2 17 2 20 19 14 12 -3
18 -2 15 3 -4 6 6 9 21 9 15 -1 34 5 44 12 12 10 18 11 24 1 5 -8 3 -10 -6 -4
-9 6 -11 4 -5 -5 6 -9 4 -11 -5 -5 -9 6 -11 4 -5 -5 5 -8 4 -11 -2 -7 -5 3
-10 0 -10 -8 0 -8 3 -15 6 -15 12 0 35 45 32 64 -1 10 1 16 7 13 10 -7 10 -7
17 95 l4 78 -36 25 c-23 15 -41 21 -46 16 -5 -5 -16 -7 -25 -4 -10 4 -13 2 -8
-5 4 -7 2 -13 -3 -13 -6 -1 -15 -3 -21 -4 -5 -1 -13 -3 -17 -4 -3 0 1 -9 10
-19 10 -10 14 -22 10 -25 -3 -4 -1 -7 4 -7 6 0 10 -7 9 -15 -3 -21 -12 -28
-14 -10 -1 8 -3 22 -4 30 -1 9 -6 14 -12 12 -6 -3 -10 -10 -8 -16 1 -6 3 -16
5 -22 1 -6 -5 -14 -13 -16 -13 -4 -13 -3 0 6 10 7 11 11 3 11 -7 0 -15 -1 -18
-2 -2 -2 -10 6 -18 16 -9 12 -16 15 -21 8 -3 -6 1 -15 9 -20 14 -7 14 -10 2
-21 -12 -10 -18 -8 -32 11 -12 15 -15 17 -12 6 4 -11 1 -18 -6 -18 -7 -1 -4
-6 6 -14 15 -12 15 -14 2 -19 -8 -4 -12 -13 -9 -22 3 -8 11 -12 16 -9 6 4 5
10 -3 15 -8 5 -9 9 -3 9 19 0 24 -12 13 -32 -8 -16 -13 -17 -25 -7 -10 8 -18
9 -25 2 -8 -8 -7 -13 0 -17 6 -4 11 -2 11 4 0 6 5 8 10 5 6 -4 8 -11 4 -16 -3
-6 1 -18 10 -28 14 -16 13 -18 -14 -35 -25 -14 -29 -22 -25 -46 3 -19 0 -30
-10 -34 -17 -6 -20 -26 -4 -26 5 0 7 5 4 10 -3 6 1 10 9 10 32 0 4 -37 -29
-38 -15 -1 -18 -22 -3 -22 10 0 10 -2 -1 -9 -21 -13 -23 -41 -3 -34 10 4 13 2
8 -5 -4 -7 -13 -12 -20 -12 -24 0 -44 -34 -48 -77 -2 -17 -15 -17 -21 0 -2 6
6 26 19 44 25 33 36 58 48 106 4 18 3 26 -3 23 -5 -4 -12 -2 -16 4 -5 9 7 14
27 11 4 0 4 7 1 16 -4 9 -2 14 3 10 6 -3 15 3 22 13 11 18 10 18 -18 2 -15 -9
-27 -19 -25 -23 2 -3 -11 -6 -30 -6 -20 0 -32 4 -28 10 3 6 1 7 -5 3 -21 -13
-13 9 11 29 22 19 26 21 48 24 6 0 8 8 5 17 -5 12 -2 15 10 10 9 -4 23 -1 30
5 18 14 18 0 0 -23 -7 -10 -16 -15 -19 -11 -4 3 -7 1 -7 -5 0 -20 17 -13 34
13 9 14 21 23 26 20 14 -9 19 9 7 25 -17 22 -48 45 -46 34 3 -19 -1 -35 -9
-30 -5 3 -22 -8 -39 -23 -17 -15 -39 -31 -48 -34 -9 -4 -14 -11 -10 -16 3 -5
1 -12 -5 -16 -5 -3 -10 -1 -10 5 0 6 -5 8 -10 5 -6 -4 -4 -12 5 -21 20 -20 19
-33 -2 -30 -10 2 -20 -1 -23 -5 -8 -12 -83 -42 -75 -30 3 6 13 11 21 11 8 0
13 4 10 9 -8 12 21 66 51 99 30 32 57 82 49 90 -3 3 -6 0 -6 -6 0 -7 -6 -11
-12 -9 -8 1 -12 -7 -11 -20 3 -26 -19 -36 -43 -19 -13 10 -14 15 -4 21 9 6 11
4 5 -5 -5 -8 -3 -11 6 -8 8 3 14 13 14 23 0 10 9 19 20 21 11 2 26 12 34 23
14 22 31 28 31 10 0 -5 -4 -8 -9 -5 -5 3 -11 -1 -15 -9 -9 -24 10 -26 23 -2
15 28 23 63 25 103 1 23 5 30 15 26 9 -3 12 -1 7 6 -4 7 -2 12 6 12 11 0 10 2
0 9 -11 7 -10 9 3 15 10 3 13 11 9 18 -4 7 -4 10 1 6 10 -10 37 11 29 23 -3 5
3 10 13 11 10 0 23 2 30 2 6 1 15 5 19 9 4 4 13 2 21 -4 15 -13 17 -5 3 21 -7
14 -6 17 8 16 14 -1 17 9 18 59 0 33 -4 65 -9 72 -5 7 -6 17 -2 23 3 5 2 10
-2 10 -5 0 -9 9 -10 20 -1 11 -9 27 -17 36 -9 9 -13 20 -10 26 4 6 2 8 -4 4
-6 -3 -17 1 -25 9 -22 22 -43 20 -26 -2 13 -17 13 -17 -7 -1 -11 10 -30 16
-42 13 -13 -2 -20 0 -16 6 3 6 -5 8 -20 5 -16 -3 -24 -1 -20 5 3 6 -5 8 -20 5
-25 -5 -41 5 -29 18 3 3 12 1 20 -5 10 -9 13 -8 13 1 0 9 4 9 17 -1 15 -12 16
-12 8 1 -8 13 -6 13 8 2 9 -8 22 -10 28 -6 8 5 10 3 4 -7 -5 -8 -5 -11 0 -7 4
4 16 3 27 -3 17 -9 18 -8 9 10 -7 12 -19 18 -31 16 -11 -2 -20 -1 -20 3 0 4
-17 8 -37 9 -77 3 -113 7 -113 14 0 10 30 20 40 14 5 -3 11 -1 15 5 3 5 -2 10
-12 11 -12 1 -10 3 7 8 14 4 24 13 23 19 -2 6 6 16 17 22 11 6 20 7 20 3 0 -4
5 0 11 10 6 9 14 15 20 12 15 -10 10 -25 -8 -26 -10 0 -13 -3 -6 -5 7 -3 9
-12 6 -20 -3 -8 0 -14 6 -14 6 0 11 7 11 16 0 8 4 13 9 9 5 -3 12 -1 16 5 3 5
1 10 -4 10 -6 0 -11 5 -11 10 0 6 6 10 13 8 6 -2 12 -1 12 2 1 3 10 15 20 28
11 12 20 26 20 30 0 4 4 13 8 20 9 14 9 14 -21 17 -13 1 -21 -2 -19 -9 3 -6 9
-10 14 -9 5 1 10 -5 10 -13 0 -12 -3 -12 -18 2 -9 8 -19 12 -22 7 -7 -11 19
-34 29 -25 4 4 4 1 0 -6 -4 -7 -12 -10 -17 -7 -5 4 -9 2 -9 -3 0 -6 -7 -13
-16 -16 -14 -5 -15 -4 -5 8 7 9 8 17 2 20 -13 8 -6 42 8 39 6 -2 11 2 11 7 0
6 -6 10 -12 10 -9 0 -8 4 2 10 13 8 13 10 1 10 -11 0 -12 3 -3 12 7 7 8 17 1
30 -7 14 -6 18 5 18 9 0 13 -6 10 -14 -3 -8 0 -17 7 -22 9 -5 10 -2 6 10 -4
11 -3 15 4 11 6 -4 8 -13 5 -21 -3 -8 0 -14 6 -14 6 0 8 -3 5 -6 -4 -4 -13 -1
-22 6 -8 7 -15 8 -15 2 0 -16 25 -31 38 -23 9 5 10 15 2 37 -12 33 -64 71 -75
54 -7 -11 -25 -4 -25 10 0 8 26 7 60 -1 12 -3 15 6 14 44 0 26 4 47 9 47 5 0
4 7 -3 15 -7 9 -10 18 -7 22 9 9 -11 41 -33 53 -12 7 -21 7 -25 0z m-31 -75
c-4 -8 -11 -12 -16 -9 -6 4 -5 10 3 15 19 12 19 11 13 -6z m82 -89 c2 -14 0
-15 -12 -5 -17 14 -19 32 -2 27 6 -2 12 -12 14 -22z m-76 -22 c0 -8 -19 -13
-24 -6 -3 5 1 9 9 9 8 0 15 -2 15 -3z m47 -24 c-1 -20 -9 -25 -20 -13 -4 3 -2
12 4 20 15 18 18 17 16 -7z m-770 -159 c0 -11 -7 -17 -14 -14 -9 4 -9 8 0 19
16 17 16 17 14 -5z m-40 -6 c0 -8 -4 -12 -9 -9 -5 3 -6 10 -3 15 9 13 12 11
12 -6z m-33 -17 c-4 -5 -8 -7 -12 -4 -3 3 -11 -2 -19 -12 -13 -15 -13 -15 -4
4 5 11 17 21 25 21 8 0 13 -4 10 -9z m226 -9 c0 -5 4 -7 10 -4 6 3 7 -1 4 -9
-5 -13 -8 -13 -20 -1 -16 16 -18 25 -4 25 6 0 10 -5 10 -11z m-283 -20 c2 -16
-1 -19 -9 -11 -5 5 -7 15 -4 21 10 15 12 14 13 -10z m323 1 c0 -5 -5 -10 -11
-10 -5 0 -7 5 -4 10 3 6 8 10 11 10 2 0 4 -4 4 -10z m34 1 c3 -5 -1 -11 -9
-14 -9 -4 -12 -1 -8 9 6 16 10 17 17 5z m-402 -53 c-12 -18 -22 -27 -22 -20 0
6 -5 12 -11 12 -5 0 -8 -3 -5 -8 2 -4 -1 -15 -8 -24 -12 -16 -14 -15 -25 10
-10 23 -9 25 2 10 16 -20 29 -14 20 9 -4 11 0 14 17 11 13 -1 25 3 27 10 3 8
-1 10 -12 5 -16 -5 -15 -4 1 15 28 33 41 9 16 -30z m465 33 c-8 -9 -12 -10
-15 -2 -2 6 -8 11 -13 11 -6 0 -7 -5 -3 -12 4 -7 3 -8 -5 -4 -17 11 -4 24 23
22 19 -1 22 -4 13 -15z m54 -6 c5 4 6 -1 2 -10 -3 -9 -9 -12 -12 -7 -3 5 -14
8 -24 6 -9 -1 -15 2 -11 7 3 5 10 7 15 4 5 -4 9 0 10 7 0 10 2 10 6 0 2 -6 9
-10 14 -7z m54 -22 c5 -14 3 -15 -6 -6 -6 6 -19 9 -28 6 -14 -4 -14 -3 -1 6
21 15 27 14 35 -6z m-758 -89 c-3 -3 -12 -4 -19 -1 -8 3 -5 6 6 6 11 1 17 -2
13 -5z m33 2 c0 -3 -4 -8 -10 -11 -5 -3 -10 -1 -10 4 0 6 5 11 10 11 6 0 10
-2 10 -4z m0 -32 c0 -8 -19 -13 -24 -6 -3 5 1 9 9 9 8 0 15 -2 15 -3z m-80 -8
c0 -2 -7 -9 -15 -16 -13 -11 -14 -10 -9 4 5 14 24 23 24 12z m1308 -37 c10
-13 9 -19 -5 -30 -16 -12 -17 -12 -6 2 13 16 8 29 -9 29 -5 0 -6 -5 -2 -12 4
-7 3 -8 -5 -4 -9 6 -9 11 0 22 6 8 12 13 13 12 1 -2 7 -10 14 -19z m-122 -1
c4 -7 4 -10 -1 -6 -4 4 -14 0 -22 -10 -13 -15 -13 -15 -3 6 12 25 16 27 26 10z
m-50 -53 c-1 -8 -8 -21 -16 -28 -10 -10 -11 -9 -4 3 5 8 9 18 10 23 3 14 4 17
8 17 2 0 3 -7 2 -15z m-1225 -22 c12 -16 12 -17 -2 -6 -9 7 -20 9 -24 5 -5 -4
-5 -1 -1 6 9 16 11 15 27 -5z m1425 -18 c1 -23 -15 -37 -17 -15 -1 6 -2 16 -3
23 -1 6 0 16 2 20 7 13 16 -2 18 -28z m-251 -32 c-14 -14 -25 -30 -25 -35 0
-5 -4 -6 -10 -3 -5 3 3 19 19 34 17 16 27 32 23 37 -4 4 -1 4 6 0 10 -6 7 -14
-13 -33z m-1210 -33 c-3 -5 -12 -10 -18 -10 -7 0 -6 4 3 10 19 12 23 12 15 0z
m1462 -5 c0 -8 -4 -15 -9 -15 -4 0 -8 7 -8 15 0 8 4 15 8 15 5 0 9 -7 9 -15z
m-306 -36 c-12 -11 -21 -24 -21 -29 0 -6 -7 -10 -15 -10 -11 0 -6 9 14 29 16
16 27 32 23 37 -4 4 -1 4 6 0 11 -6 9 -12 -7 -27z m-1231 -24 c0 -12 -19 -12
-23 0 -4 9 -1 12 9 8 7 -3 14 -7 14 -8z m-37 -32 c-7 -17 -19 -17 -26 1 -4 10
-1 13 9 9 10 -4 13 0 8 13 -5 15 -4 16 4 5 6 -8 8 -20 5 -28z m-32 -20 c12
-16 12 -17 -2 -6 -9 7 -20 9 -24 5 -5 -4 -5 -1 -1 6 9 16 11 15 27 -5z m1244
-3 c4 -6 1 -9 -7 -8 -7 2 -12 -3 -10 -10 1 -8 -2 -11 -9 -6 -9 5 -10 2 -6 -10
4 -10 3 -15 -3 -11 -9 6 -14 -7 -11 -27 0 -4 -7 -4 -16 -1 -12 5 -14 3 -8 -7
5 -8 4 -11 -2 -7 -6 4 -14 0 -17 -9 -3 -9 -11 -12 -18 -8 -8 5 -9 2 -5 -10 4
-9 3 -15 -1 -12 -10 6 -31 -18 -57 -67 -21 -39 -29 -44 -41 -25 -4 6 -3 8 3 5
11 -7 28 20 24 36 -1 5 3 6 8 3 5 -3 12 5 15 19 4 14 11 25 17 25 7 0 6 6 -2
17 -12 15 -12 16 3 10 10 -3 20 -2 23 4 4 5 11 6 17 3 8 -5 9 -1 5 10 -4 10
-3 15 3 11 6 -3 13 1 16 9 3 9 10 13 15 10 5 -3 9 0 9 7 0 11 38 59 46 59 2 0
6 -5 9 -10z m446 -111 c-2 -42 -25 -89 -43 -89 -6 0 -27 -13 -48 -30 -33 -26
-39 -28 -56 -16 -15 12 -16 16 -5 30 13 16 36 17 59 3 6 -5 12 -4 12 2 0 5 -3
11 -7 14 -5 2 -2 2 5 0 25 -6 34 9 16 28 -9 10 -12 19 -6 19 6 0 14 -5 17 -10
5 -8 11 -8 19 -1 7 6 15 9 17 6 3 -2 5 5 6 16 2 17 0 18 -13 4 -18 -17 -38
-20 -28 -4 4 7 -3 6 -17 -2 -13 -7 -25 -12 -26 -11 -2 1 -9 2 -15 2 -9 0 -9
-3 -3 -8 14 -9 13 -33 0 -30 -5 1 -9 8 -7 15 2 7 -3 13 -9 13 -7 0 -9 3 -6 7
4 3 1 13 -5 22 -10 13 -10 14 2 4 11 -11 18 -9 38 10 15 14 22 17 20 7 -4 -18
49 -21 64 -3 6 7 7 13 2 13 -5 0 -2 5 6 10 10 6 11 10 3 10 -7 0 -13 8 -13 17
0 13 3 14 12 5 7 -7 11 -30 9 -53z m-1847 20 c-8 -13 -21 -11 -27 5 -4 10 0
12 14 9 10 -3 16 -9 13 -14z m36 -18 c-6 -12 -8 -27 -4 -33 5 -7 3 -8 -6 -3
-7 4 -16 2 -21 -6 -6 -9 -9 -10 -9 -2 0 6 7 18 15 27 18 17 20 30 3 20 -7 -4
-8 -3 -4 5 4 6 12 9 17 6 5 -4 9 -1 9 6 0 7 3 10 6 7 3 -4 1 -16 -6 -27z
m1545 9 c3 -5 1 -10 -4 -10 -6 0 -11 5 -11 10 0 6 2 10 4 10 3 0 8 -4 11 -10z
m-8 -32 c0 -7 -12 -14 -26 -15 l-26 -1 25 14 c14 7 25 13 26 14 0 0 1 -6 1
-12z m-1587 -28 c0 -5 -2 -10 -4 -10 -3 0 -8 5 -11 10 -3 6 -1 10 4 10 6 0 11
-4 11 -10z m1784 -9 c17 -19 17 -19 -1 -15 -11 3 -20 12 -20 20 0 18 0 18 21
-5z m-249 -10 c-3 -6 -11 -11 -16 -11 -5 0 -4 6 3 14 14 16 24 13 13 -3z
m-1615 -16 c-7 -8 -10 -21 -7 -30 4 -8 3 -16 -1 -19 -12 -7 -12 37 0 51 6 7
13 13 15 13 3 0 0 -7 -7 -15z m1444 -41 c3 -8 2 -12 -4 -9 -6 3 -10 10 -10 16
0 14 7 11 14 -7z m-164 -7 c0 -7 -11 -23 -25 -35 -14 -12 -25 -18 -25 -12 0 5
9 14 21 20 12 7 18 18 15 26 -3 8 -1 14 4 14 6 0 10 -6 10 -13z m476 -8 c19
-22 19 -22 -3 -10 -14 7 -24 8 -28 1 -8 -13 -25 -13 -25 1 0 5 5 7 10 4 6 -3
13 1 16 9 8 20 7 20 30 -5z m-186 -43 c0 -4 -8 -2 -17 5 -15 12 -16 12 -10 -4
4 -11 1 -20 -8 -23 -7 -3 -11 -12 -9 -19 3 -7 -4 -19 -16 -25 -16 -9 -21 -9
-15 -1 4 7 1 20 -6 29 -11 13 -8 12 9 -2 23 -20 31 -10 10 13 -10 11 -10 13 0
7 6 -4 12 -3 12 3 0 5 -3 11 -7 14 -5 2 -2 2 6 0 8 -2 11 2 8 11 -3 8 -3 16 0
19 7 7 43 -15 43 -27z m307 -4 c2 -9 4 -27 5 -39 0 -13 4 -21 8 -18 4 2 15 -4
25 -15 15 -16 16 -23 6 -33 -10 -9 -11 -9 -6 3 4 11 -1 16 -16 17 -17 2 -18
-1 -9 -13 8 -8 8 -14 2 -14 -5 0 -12 7 -16 15 -3 8 -12 12 -19 9 -12 -4 -28
15 -31 38 -1 3 -4 9 -8 13 -10 11 13 54 31 58 20 4 24 1 28 -21z m-197 14 c0
-3 -4 -8 -10 -11 -5 -3 -10 -1 -10 4 0 6 5 11 10 11 6 0 10 -2 10 -4z m-457
-21 c4 -8 3 -16 -1 -19 -4 -3 -9 4 -9 15 -2 23 3 25 10 4z m-26 -12 c-4 -3 -3
-11 3 -18 6 -7 -6 -26 -37 -58 -25 -26 -50 -47 -55 -47 -5 0 -6 -4 -3 -10 3
-5 -5 -15 -19 -21 -14 -7 -24 -15 -21 -18 2 -4 0 -13 -6 -21 -6 -11 -9 -12 -9
-2 0 7 -6 10 -12 7 -7 -4 -1 5 14 18 15 14 24 28 20 31 -3 4 2 4 11 0 10 -3
17 -3 16 2 -1 5 -1 14 0 19 2 15 61 78 61 65 0 -6 4 -9 9 -6 5 4 8 14 6 24 -2
16 11 42 23 42 3 0 2 -3 -1 -7z m276 -40 c-10 -4 -10 -7 0 -18 7 -7 15 -11 20
-8 4 2 7 2 7 -1 0 -14 -20 -14 -35 0 -12 13 -13 19 -4 30 7 8 15 12 18 8 3 -4
1 -9 -6 -11z m-20 -37 c4 -10 0 -12 -15 -8 -15 4 -17 7 -6 13 17 11 15 11 21
-5z m-1273 -24 c8 -2 17 -7 20 -11 3 -5 13 -7 22 -6 9 2 24 -5 33 -15 10 -11
24 -16 33 -13 14 5 15 3 5 -7 -10 -11 -15 -11 -28 0 -8 7 -15 9 -15 5 0 -5 -9
0 -20 10 -11 10 -20 14 -20 10 0 -4 -8 -1 -18 8 -10 10 -22 14 -25 11 -4 -4
-9 0 -13 9 -3 9 -13 14 -22 10 -15 -4 -15 -3 -2 6 11 8 18 7 25 -2 6 -6 17
-13 25 -15z m1600 12 c0 -8 4 -13 9 -10 5 3 12 -1 15 -10 3 -8 10 -13 14 -10
11 7 49 -20 41 -28 -9 -10 -40 5 -33 15 3 5 2 8 -3 7 -4 -1 -23 6 -42 16 -19
10 -30 12 -26 5 5 -7 4 -10 -1 -6 -6 3 -11 -4 -11 -16 -2 -20 -1 -21 11 -4 18
24 29 21 16 -4 -7 -12 -18 -18 -26 -15 -9 3 -12 1 -9 -5 4 -5 1 -17 -6 -25 -9
-11 -9 -18 -1 -26 8 -8 7 -15 -4 -26 -11 -10 -12 -18 -5 -25 16 -16 13 -23 -9
-23 -21 0 -23 27 -2 48 8 8 9 15 0 25 -8 10 -7 18 6 32 16 18 16 20 1 29 -16
8 -16 9 0 16 14 5 15 9 5 21 -11 13 -10 14 2 10 8 -3 21 1 28 10 16 19 30 19
30 -1z m-345 -14 c-3 -5 -12 -10 -18 -10 -7 0 -6 4 3 10 19 12 23 12 15 0z
m210 -1 c11 -17 2 -18 -19 -3 -17 12 -17 14 -4 14 9 0 20 -5 23 -11z m-90 -49
c35 0 38 -39 4 -76 -15 -16 -16 -23 -7 -32 7 -7 8 -12 4 -12 -5 0 -3 -7 4 -15
10 -12 10 -15 -2 -15 -8 0 -19 5 -26 12 -8 8 -12 8 -12 1 0 -6 7 -13 15 -17
21 -8 7 -35 -16 -31 -11 2 -17 0 -14 -6 4 -5 11 -6 17 -3 7 5 9 2 5 -8 -3 -9
0 -21 6 -28 9 -10 8 -12 -4 -7 -13 4 -16 1 -11 -15 3 -14 1 -19 -6 -14 -6 3
-8 18 -6 32 3 15 -1 34 -9 43 -8 9 -13 25 -11 35 1 11 0 25 -4 30 -12 20 -11
37 4 43 11 4 11 10 2 26 -6 12 -16 25 -21 29 -12 8 -17 49 -5 42 4 -3 8 0 8 6
0 6 11 5 30 -5 16 -8 40 -15 55 -15z m257 13 c7 -10 20 -19 28 -21 36 -7 46
-64 14 -76 -8 -3 -14 -10 -14 -16 0 -6 6 -8 13 -4 6 4 4 -1 -5 -11 -22 -24
-33 -14 -18 15 8 15 8 20 1 16 -6 -4 -11 -5 -11 -2 0 2 -3 13 -7 23 -6 16 -5
16 10 4 14 -11 17 -11 17 0 0 11 2 11 10 -1 8 -12 9 -9 6 10 -2 14 -9 24 -16
22 -6 -1 -9 2 -5 7 3 6 -3 8 -15 6 -11 -2 -19 1 -17 7 1 6 -5 13 -13 15 -13 4
-13 3 0 -6 13 -10 13 -11 0 -12 -8 -1 -19 -1 -24 0 -5 1 -4 -5 4 -13 8 -11 9
-16 1 -16 -6 0 -11 -5 -11 -12 0 -7 6 -6 18 4 30 26 39 28 53 11 12 -14 12
-16 -2 -11 -10 4 -32 -4 -53 -18 -35 -24 -47 -44 -25 -44 5 0 7 -5 3 -12 -4
-6 -3 -8 4 -4 6 3 9 15 7 26 -2 11 -1 20 3 21 4 0 15 2 25 4 11 2 16 -1 14 -8
-3 -7 -10 -11 -16 -9 -6 1 -11 -2 -11 -8 0 -14 13 -13 28 2 8 8 12 8 12 1 0
-17 -27 -35 -55 -37 -18 -1 -26 -8 -31 -28 -3 -15 -9 -30 -14 -33 -5 -3 -5
-19 0 -35 5 -16 5 -32 0 -35 -11 -7 -21 21 -14 39 9 24 -14 28 -27 4 -6 -13
-8 -20 -4 -16 5 5 19 -9 32 -30 14 -20 22 -29 19 -19 -3 9 -1 17 4 17 6 0 10
-9 10 -20 0 -30 -26 -24 -40 10 -7 17 -19 30 -26 30 -8 0 -14 2 -14 4 0 2 -3
12 -7 22 -4 12 -3 15 5 10 8 -4 10 -2 6 8 -4 11 1 14 20 12 15 -2 23 1 19 7
-4 6 -1 7 7 2 8 -5 11 -4 6 3 -3 6 -2 13 4 17 6 4 8 11 4 16 -3 5 -10 7 -15 4
-5 -4 -9 -1 -9 5 0 7 7 10 15 7 19 -8 30 10 16 27 -8 10 -7 17 4 26 10 8 12
17 6 28 -7 12 -2 25 17 48 32 38 37 40 54 17z m-1447 -28 c6 -1 9 -6 8 -13 -2
-7 2 -13 7 -13 19 -3 25 -5 60 -24 19 -11 39 -18 43 -17 5 1 6 -2 2 -8 -5 -8
-11 -7 -21 1 -8 6 -14 8 -14 5 0 -4 -7 0 -16 8 -8 9 -19 14 -24 11 -5 -3 -11
-1 -15 5 -4 6 -11 8 -16 5 -5 -4 -9 -1 -9 5 0 6 -5 8 -12 4 -7 -5 -8 -3 -3 6
6 9 4 12 -6 8 -8 -3 -23 0 -34 8 -10 8 -14 14 -9 14 6 0 16 -6 23 -12 11 -11
13 -10 8 5 -5 13 -3 16 6 10 6 -4 17 -8 22 -8z m-60 -45 c4 -6 9 -8 13 -6 4 2
16 -2 27 -10 10 -8 14 -14 8 -14 -7 0 -15 5 -18 10 -4 6 -10 8 -15 5 -5 -3
-11 -1 -15 5 -4 6 -11 8 -16 5 -5 -4 -9 -1 -9 4 0 14 17 14 25 1z m725 0 c-10
-6 -11 -10 -3 -10 7 0 -1 -13 -17 -28 -16 -16 -27 -32 -24 -35 3 -3 -2 -4 -13
-3 -23 4 -23 5 5 40 12 16 22 23 22 17 0 -7 4 -10 10 -6 5 3 7 12 3 20 -3 10
1 15 13 15 16 0 17 -2 4 -10z m-808 -24 c6 4 8 2 4 -4 -3 -6 -2 -13 4 -17 5
-3 10 0 10 7 0 8 5 6 11 -5 6 -9 14 -15 19 -12 5 3 11 1 15 -5 4 -6 11 -7 17
-4 7 5 8 2 3 -6 -6 -10 -4 -12 8 -7 11 4 17 1 17 -9 0 -8 5 -12 10 -9 6 4 17
1 25 -5 8 -7 15 -9 15 -5 0 4 7 1 16 -6 9 -7 23 -14 32 -15 8 -2 19 -9 23 -16
5 -7 9 -9 9 -4 0 5 9 1 20 -9 11 -10 20 -15 20 -11 0 5 25 -6 55 -23 30 -17
55 -28 55 -25 0 4 9 -1 19 -10 14 -13 20 -14 23 -4 3 7 -5 20 -16 30 l-21 17
23 -6 c12 -3 22 -10 22 -15 0 -6 7 -5 15 2 25 21 17 3 -15 -32 -16 -18 -30
-29 -30 -25 0 11 -18 -9 -48 -51 -13 -18 -20 -38 -16 -44 5 -7 3 -8 -6 -3 -10
6 -12 4 -7 -9 5 -11 3 -15 -5 -10 -8 5 -9 2 -5 -10 5 -11 3 -15 -5 -10 -8 5
-9 2 -5 -10 5 -11 3 -15 -5 -10 -7 5 -9 2 -5 -9 4 -12 2 -14 -10 -10 -13 5
-15 2 -10 -11 4 -11 3 -15 -4 -11 -6 4 -8 14 -5 22 4 9 1 13 -6 10 -7 -2 -12
-11 -10 -18 3 -10 0 -11 -8 -3 -8 8 -4 20 18 44 17 18 29 40 27 49 -1 9 3 19
9 24 8 5 7 10 -3 16 -9 6 -10 11 -2 15 12 8 15 27 4 24 -5 -2 -8 1 -8 7 0 5 5
10 12 11 7 1 10 -9 8 -25 -3 -19 1 -28 11 -28 9 0 12 7 8 19 -6 19 10 25 21 7
5 -7 12 -4 20 8 14 20 15 40 2 35 -5 -1 -5 2 -2 8 4 7 0 10 -11 8 -12 -2 -18
2 -16 11 2 9 -3 11 -13 7 -11 -4 -14 -2 -9 6 5 8 2 9 -10 5 -11 -5 -15 -3 -10
5 5 8 2 9 -9 5 -9 -3 -19 -2 -22 4 -4 5 -10 7 -15 4 -4 -3 -13 2 -20 10 -7 8
-16 12 -21 9 -5 -3 -9 -2 -8 3 3 20 -2 27 -11 13 -7 -11 -10 -11 -10 -2 0 7
-5 10 -10 7 -6 -4 -10 -3 -9 2 3 20 -2 27 -11 13 -7 -11 -10 -11 -10 -2 0 7
-4 10 -10 7 -5 -3 -25 4 -42 17 -18 13 -40 24 -48 26 -8 2 -17 8 -18 13 -2 5
-7 7 -12 4 -11 -7 -40 22 -39 38 0 8 2 8 6 -1 2 -6 10 -9 15 -6z m298 -22 c0
5 7 3 15 -4 8 -7 15 -9 15 -4 0 5 5 1 11 -8 5 -10 16 -15 24 -12 8 4 15 1 15
-5 0 -6 3 -10 8 -9 14 4 52 -13 52 -24 0 -5 7 -8 15 -4 8 3 15 0 15 -6 0 -6 3
-8 6 -5 6 6 59 -18 74 -33 12 -12 42 -15 78 -6 13 3 20 1 17 -5 -9 -13 9 -11
24 4 11 10 12 9 5 -3 -14 -24 -10 -44 11 -62 11 -10 16 -17 11 -18 -5 0 -2 -8
7 -17 8 -10 16 -20 16 -23 0 -3 3 -13 7 -23 3 -10 4 -20 1 -23 -7 -7 -38 26
-32 36 3 4 -2 13 -9 20 -8 6 -13 20 -11 32 3 14 0 18 -11 14 -8 -3 -13 -2 -10
3 6 9 -51 36 -67 32 -5 -1 -5 3 -2 9 4 7 1 10 -6 8 -8 -1 -26 6 -41 16 -15 10
-32 15 -37 12 -5 -4 -13 -1 -16 4 -6 11 -50 32 -68 34 -4 1 -11 6 -15 12 -4 6
-15 10 -24 9 -9 -2 -22 3 -29 11 -6 8 -18 14 -25 14 -8 0 -14 5 -14 10 0 6 -3
9 -7 9 -21 -3 -33 2 -27 12 4 8 9 7 15 -2 5 -8 9 -10 9 -5z m1163 9 c4 -3 -1
-11 -10 -18 -9 -7 -17 -23 -19 -36 -5 -51 -7 -53 -13 -14 -4 27 -2 43 7 48 7
5 10 12 7 18 -7 10 18 13 28 2z m-1523 -46 c13 -5 13 -6 -1 -6 -8 -1 -24 6
-35 15 -19 15 -19 15 1 6 11 -5 27 -12 35 -15z m1553 -9 c7 1 1 -6 -13 -17
-29 -23 -38 -20 -35 11 4 42 6 43 21 23 8 -11 21 -19 27 -17z m-769 0 c-5 -8
-1 -9 12 -4 18 7 18 6 -1 -12 -11 -10 -22 -15 -24 -9 -2 5 -7 3 -12 -4 -7 -11
-9 -11 -9 2 0 9 7 20 16 23 8 3 12 11 8 17 -4 8 -3 9 5 5 6 -4 8 -12 5 -18z
m626 -25 c-4 -33 11 -59 43 -78 18 -10 40 -28 50 -39 18 -20 18 -21 -2 -30
-21 -9 -29 -26 -13 -26 5 0 9 -6 9 -12 0 -7 2 -19 4 -27 2 -7 -2 -16 -9 -18
-7 -3 -12 -1 -11 4 3 19 -2 33 -12 33 -8 0 -8 -5 1 -15 15 -18 -1 -20 -18 -3
-7 7 -12 8 -12 2 0 -5 -9 -10 -19 -11 -13 -1 -18 3 -14 13 3 7 10 11 16 7 6
-4 7 -1 2 7 -5 9 -2 10 11 6 11 -3 25 -2 32 3 10 6 9 10 -7 14 -14 3 -19 10
-15 21 3 9 10 13 15 10 5 -3 7 -10 4 -15 -11 -17 2 -9 21 13 10 12 14 18 8 15
-7 -4 -15 3 -18 16 -7 21 -8 21 -23 -10 -16 -33 -41 -47 -29 -18 5 13 2 14
-17 4 -20 -12 -21 -12 -2 -19 13 -5 15 -9 7 -14 -7 -4 -9 -13 -6 -19 4 -7 -1
-4 -11 5 -21 19 -29 65 -13 74 6 4 5 9 -3 15 -11 6 -11 11 -2 20 9 9 9 16 2
25 -7 8 -5 17 6 28 9 9 14 16 10 16 -3 0 -3 5 0 10 10 15 16 12 15 -7z m-1245
-43 c-3 -5 -1 -11 4 -11 6 -1 17 -2 24 -3 6 -1 11 -8 9 -15 -2 -9 3 -11 13 -7
9 3 13 2 10 -4 -3 -6 -1 -10 4 -10 6 0 11 6 12 13 0 9 2 9 6 -1 2 -6 10 -9 15
-6 7 4 8 2 4 -5 -4 -6 -2 -20 6 -29 11 -15 11 -15 -3 -5 -9 7 -19 10 -23 6 -4
-4 -4 0 -1 8 5 13 -1 15 -25 14 -17 -1 -33 2 -36 7 -3 4 -10 5 -16 2 -7 -4 -8
-2 -4 4 4 7 1 12 -6 12 -8 0 -23 7 -34 16 -18 15 -18 15 3 5 26 -13 33 -14 32
-3 -2 12 1 22 7 22 3 0 2 -4 -1 -10z m1465 -27 c0 -23 -4 -33 -9 -27 -9 8 -4
64 5 64 2 0 4 -17 4 -37z m-1065 -23 c3 -6 -1 -7 -9 -4 -18 7 -21 14 -7 14 6
0 13 -4 16 -10z m77 -40 c10 0 18 -4 18 -9 0 -14 -38 -1 -52 18 -10 13 -10 14
2 4 8 -7 22 -13 32 -13z m832 4 c3 -8 2 -12 -4 -9 -6 3 -10 10 -10 16 0 14 7
11 14 -7z m166 6 c0 -5 -2 -10 -4 -10 -3 0 -8 5 -11 10 -3 6 -1 10 4 10 6 0
11 -4 11 -10z m-33 -46 c18 -14 42 -26 53 -27 11 -1 20 -7 20 -14 0 -15 -19
-13 -38 4 -7 7 -20 9 -29 6 -10 -4 -14 -2 -10 4 4 6 -1 17 -10 24 -15 12 -16
12 -8 -1 6 -8 10 -18 10 -22 0 -10 52 -48 58 -42 3 3 8 -4 12 -15 3 -12 12
-18 20 -14 11 4 12 10 4 25 -7 14 -8 18 -1 14 7 -4 9 1 7 14 -2 11 0 22 5 25
5 3 7 12 3 20 -3 9 1 15 9 15 10 0 14 -12 13 -42 -1 -47 -20 -92 -36 -83 -5 4
-9 1 -9 -6 0 -6 -9 -1 -20 12 -10 13 -19 18 -20 12 0 -7 -5 -13 -10 -13 -6 0
-10 6 -8 14 2 8 -5 21 -16 29 -17 13 -50 87 -38 87 3 0 20 -12 39 -26z m-929
-41 c20 -9 50 -16 65 -15 17 1 26 -2 22 -8 -4 -6 -10 -8 -15 -5 -5 3 -11 2
-14 -3 -8 -13 27 -11 43 2 11 8 13 8 7 -1 -4 -8 -2 -13 6 -14 10 0 11 -2 0 -6
-10 -4 -10 -8 0 -21 7 -9 -1 -6 -19 7 -18 12 -33 19 -33 15 0 -4 -8 0 -18 9
-10 10 -22 14 -27 10 -4 -5 -4 -2 0 6 6 11 4 13 -9 8 -11 -5 -15 -3 -10 5 5 8
2 9 -9 5 -10 -3 -17 -2 -17 4 0 6 -4 8 -9 4 -5 -3 -12 -1 -16 5 -4 6 -10 8
-15 5 -5 -3 -12 0 -16 6 -4 8 -3 9 5 5 6 -4 14 0 18 9 5 16 7 16 15 1 5 -9 26
-24 46 -33z m766 39 c2 -4 -4 -8 -14 -8 -10 0 -16 4 -14 8 3 4 9 8 14 8 5 0
11 -4 14 -8z m244 -8 c-4 -11 -28 -14 -28 -4 0 8 22 20 28 14 2 -1 2 -6 0 -10z
m-449 -50 c5 3 14 -1 21 -10 11 -12 15 -12 23 -2 7 10 8 9 4 -3 -3 -9 1 -16 9
-17 8 -1 21 -3 29 -4 10 -1 12 -5 6 -11 -5 -5 -19 -5 -32 -1 -13 4 -27 9 -31
10 -5 1 -9 3 -10 4 -2 1 -16 4 -33 5 -16 2 -35 3 -41 4 -6 1 -10 11 -9 24 1
12 3 29 4 37 1 11 9 7 26 -13 14 -16 29 -26 34 -23z m168 -26 c-7 -4 -3 -6 11
-5 14 1 18 5 12 11 -17 17 -11 24 15 22 29 -4 57 -25 49 -37 -3 -5 2 -12 11
-15 13 -6 14 -8 3 -15 -15 -10 -50 -1 -59 14 -5 7 -22 6 -50 -2 -24 -7 -50
-13 -56 -13 -7 -1 -13 -5 -13 -10 0 -4 -7 -8 -15 -8 -21 0 -19 20 3 21 9 1 20
1 25 0 8 -1 9 7 1 36 -4 13 -10 20 -15 17 -5 -3 -7 -10 -4 -15 3 -5 -1 -6 -9
-3 -9 3 -16 10 -16 16 0 5 4 7 9 3 5 -3 12 -1 16 5 4 6 11 8 16 4 6 -3 13 3
15 13 5 19 7 19 35 -6 20 -18 25 -27 16 -33z m-7 52 c0 -5 -4 -10 -10 -10 -5
0 -10 5 -10 10 0 6 5 10 10 10 6 0 10 -4 10 -10z m-820 -20 c-8 -15 -6 -21 10
-30 11 -6 20 -8 20 -5 0 4 7 -1 16 -9 11 -12 13 -20 5 -33 -7 -12 -10 -14 -11
-4 0 10 -3 11 -13 2 -8 -6 -17 -8 -20 -4 -4 3 -7 1 -7 -5 0 -18 -34 -32 -51
-20 -11 8 -11 9 4 4 9 -3 17 -4 17 -2 0 3 3 13 7 23 6 15 4 16 -9 6 -13 -11
-15 -9 -14 12 1 14 9 34 19 45 9 11 14 20 11 20 -3 0 -2 5 1 10 12 19 26 11
15 -10z m351 9 c21 -11 16 -34 -6 -25 -18 6 -29 -25 -13 -36 10 -6 10 -8 -2
-8 -12 0 -12 -2 -2 -9 11 -7 11 -9 -2 -14 -9 -4 -16 -11 -16 -17 0 -6 4 -9 8
-6 5 3 9 -1 9 -9 0 -8 -6 -16 -13 -19 -9 -3 -11 1 -7 11 4 10 2 14 -5 9 -6 -3
-14 -1 -18 5 -4 7 -3 9 3 6 7 -4 10 9 9 36 -1 30 3 41 12 39 7 -1 12 3 11 10
-5 39 1 44 32 27z m229 -4 c0 -12 -19 -12 -23 0 -4 9 -1 12 9 8 7 -3 14 -7 14
-8z m481 -2 c13 -16 12 -17 -3 -4 -17 13 -22 21 -14 21 2 0 10 -8 17 -17z
m-1120 -16 c-10 -9 -11 -8 -5 6 3 10 9 15 12 12 3 -3 0 -11 -7 -18z m1157 -12
c-3 -3 -9 2 -12 12 -6 14 -5 15 5 6 7 -7 10 -15 7 -18z m-78 4 c0 -5 5 -7 12
-3 7 4 8 3 4 -4 -4 -7 -3 -19 2 -28 6 -11 11 -13 16 -5 10 15 26 14 26 -2 0
-7 -11 -14 -24 -15 -22 -1 -26 4 -54 61 -2 4 1 7 7 7 6 0 11 -5 11 -11z m-112
-115 c7 -14 16 -23 21 -20 4 3 17 -4 27 -17 17 -20 18 -20 1 -7 -15 11 -20 11
-26 1 -7 -10 -12 -10 -29 0 -17 11 -19 16 -9 28 9 11 9 15 0 18 -14 5 -18 23
-5 23 5 0 14 -12 20 -26z m-1158 10 c0 -8 -19 -13 -24 -6 -3 5 1 9 9 9 8 0 15
-2 15 -3z m74 -17 c-3 -8 -19 -14 -35 -14 -23 0 -27 3 -15 9 9 5 20 7 25 3 5
-3 12 -1 16 5 9 14 15 12 9 -3z m46 -1 c0 -2 -6 -9 -14 -15 -11 -9 -16 -9 -22
0 -4 7 -3 9 4 5 6 -3 13 -2 17 4 6 10 15 14 15 6z m1145 -74 c-3 -3 -11 0 -18
7 -9 10 -8 11 6 5 10 -3 15 -9 12 -12z m-295 -77 c-7 -8 -20 -15 -29 -15 -11
0 -8 5 9 14 33 19 35 19 20 1z m-26 -73 c-6 -4 -14 -14 -17 -22 -4 -10 -6 -8
-6 8 -1 15 5 22 17 22 10 0 13 -3 6 -8z"/>
<path d="M2206 1402 c-3 -5 1 -9 9 -9 8 0 12 4 9 9 -3 4 -7 8 -9 8 -2 0 -6 -4
-9 -8z"/>
<path d="M2275 1359 c-4 -6 -5 -12 -2 -15 2 -3 7 2 10 11 7 17 1 20 -8 4z"/>
<path d="M2165 1309 c-4 -6 -5 -12 -2 -15 2 -3 7 2 10 11 7 17 1 20 -8 4z"/>
<path d="M2185 1299 c-11 -16 -1 -19 13 -3 7 8 8 14 3 14 -5 0 -13 -5 -16 -11z"/>
<path d="M2217 1239 c-9 -6 -15 -14 -12 -20 4 -5 1 -9 -6 -9 -8 0 -8 -4 1 -15
7 -8 9 -15 4 -15 -13 0 15 -24 31 -26 8 -1 15 2 15 7 0 5 -5 9 -11 9 -8 0 -7
6 2 17 12 14 12 16 0 8 -11 -6 -13 -4 -8 8 3 9 3 16 -1 16 -21 -3 -24 3 -6 16
22 17 17 19 -9 4z m8 -59 c2 -12 1 -20 -2 -16 -4 4 -8 16 -10 28 -4 28 6 18
12 -12z"/>
<path d="M1553 1185 c0 -8 4 -12 9 -9 5 3 6 10 3 15 -9 13 -12 11 -12 -6z"/>
<path d="M1499 1123 l-24 -28 28 24 c15 14 27 26 27 28 0 8 -8 1 -31 -24z"/>
<path d="M1844 1057 c1 -7 6 -20 12 -29 9 -16 10 -16 21 1 10 15 8 20 -12 29
-17 8 -23 8 -21 -1z m26 -17 c0 -5 -2 -10 -4 -10 -3 0 -8 5 -11 10 -3 6 -1 10
4 10 6 0 11 -4 11 -10z"/>
<path d="M1903 1043 c3 -3 -2 -14 -13 -25 -19 -20 -20 -34 -7 -55 10 -16 -5
-17 -20 -2 -13 13 -12 -2 2 -33 4 -10 5 -24 2 -32 -4 -10 0 -12 14 -9 14 4 17
9 9 18 -6 7 -7 20 -4 29 6 15 8 15 21 -1 12 -14 12 -12 -1 9 -14 24 -14 27 2
33 16 6 16 7 -1 17 -17 9 -18 11 -1 29 9 10 22 16 28 12 6 -3 7 -2 3 2 -4 5
-15 10 -23 11 -9 1 -13 0 -11 -3z m-8 -52 c3 -5 2 -12 -3 -15 -5 -3 -9 1 -9 9
0 17 3 19 12 6z"/>
<path d="M1918 1003 c7 -3 16 -2 19 1 4 3 -2 6 -13 5 -11 0 -14 -3 -6 -6z"/>
<path d="M1344 948 l-19 -23 23 19 c21 18 27 26 19 26 -2 0 -12 -10 -23 -22z"/>
<path d="M980 776 c0 -2 8 -10 18 -17 15 -13 16 -12 3 4 -13 16 -21 21 -21 13z"/>
<path d="M933 704 c1 -11 -4 -18 -10 -16 -12 2 -17 -10 -14 -30 0 -5 -4 -8
-11 -8 -6 0 -8 -3 -5 -7 4 -3 0 -14 -9 -24 -9 -10 -14 -23 -12 -30 2 -7 14 6
26 29 12 23 19 42 16 42 -4 0 4 9 17 19 18 15 21 22 12 31 -8 9 -11 8 -10 -6z"/>
<path d="M1199 819 c-12 -7 -12 -9 1 -10 8 -1 18 -1 23 0 4 0 7 -3 7 -9 0 -5
5 -10 10 -10 16 0 12 14 -8 27 -12 7 -24 8 -33 2z"/>
<path d="M1270 736 c0 -2 8 -10 18 -17 15 -13 16 -12 3 4 -13 16 -21 21 -21
13z"/>
<path d="M1910 846 c0 -2 7 -7 16 -10 8 -3 12 -2 9 4 -6 10 -25 14 -25 6z"/>
<path d="M1915 810 c-3 -5 -1 -12 5 -15 8 -5 7 -11 -1 -21 -13 -16 -6 -30 10
-19 6 3 8 11 5 17 -4 6 1 8 15 3 15 -4 21 -2 21 9 0 23 -44 44 -55 26z m41
-19 c1 -6 0 -7 -3 -1 -2 5 -9 8 -13 5 -5 -3 -11 -1 -14 4 -4 5 2 8 11 7 9 -2
18 -8 19 -15z"/>
<path d="M700 815 c0 -2 6 -8 13 -14 10 -8 14 -7 14 2 0 8 -6 14 -14 14 -7 0
-13 -1 -13 -2z"/>
<path d="M2239 698 c-4 -13 -6 -69 -2 -64 6 6 12 66 7 66 -2 0 -4 -1 -5 -2z"/>
<path d="M1715 670 c-6 -9 -4 -11 5 -5 10 6 12 4 7 -8 -3 -9 -2 -19 3 -22 15
-9 20 11 6 30 -10 14 -15 15 -21 5z"/>
<path d="M1764 638 c-4 -7 -4 -10 1 -6 4 4 15 2 24 -5 14 -11 14 -10 2 6 -16
20 -18 21 -27 5z"/>
<path d="M1885 649 c-4 -6 -5 -12 -2 -15 2 -3 7 2 10 11 7 17 1 20 -8 4z"/>
<path d="M1903 632 c-9 -15 -8 -19 3 -19 8 0 12 3 9 5 -3 3 0 11 6 19 6 7 7
13 3 13 -5 0 -14 -8 -21 -18z"/>
<path d="M1984 632 c2 -23 21 -42 41 -41 6 0 -1 6 -15 14 -14 8 -19 14 -12 15
6 0 12 5 12 11 0 5 -4 8 -9 5 -5 -4 -12 0 -15 6 -2 7 -4 3 -2 -10z"/>
<path d="M1079 628 c-6 -21 -5 -37 1 -33 5 3 11 1 14 -4 5 -8 27 -8 46 -1 3 1
9 2 13 1 5 -1 6 3 2 9 -3 6 -10 8 -15 5 -4 -3 -13 2 -20 10 -10 13 -38 21 -41
13z m42 -25 c9 -9 7 -11 -5 -9 -9 1 -21 7 -27 13 -9 9 -7 11 5 9 9 -1 21 -7
27 -13z"/>
<path d="M1436 662 c-3 -4 4 -9 15 -9 23 -2 25 3 4 10 -8 4 -16 3 -19 -1z"/>
<path d="M1413 590 c1 -21 10 -18 13 5 1 8 -2 15 -6 15 -5 0 -8 -9 -7 -20z"/>
<path d="M2010 500 c0 -5 5 -10 11 -10 5 0 7 5 4 10 -3 6 -8 10 -11 10 -2 0
-4 -4 -4 -10z"/>
<path d="M617 2317 c-3 -7 1 -21 9 -32 16 -22 0 -52 -20 -36 -7 6 -16 4 -24
-5 -11 -13 -8 -16 15 -13 3 0 10 -6 15 -15 5 -8 15 -13 23 -10 8 4 15 1 15 -5
0 -6 -4 -11 -10 -11 -5 0 -10 -4 -10 -9 0 -5 7 -8 16 -7 19 3 28 64 12 83 -11
14 -1 36 13 28 14 -10 11 0 -10 23 -21 25 -37 28 -44 9z m37 -29 c-3 -5 -12
-4 -20 3 -7 6 -11 15 -8 21 3 5 12 4 20 -3 7 -6 11 -15 8 -21z m6 -55 c0 -9
-3 -13 -7 -10 -3 4 -12 2 -19 -4 -9 -7 -12 -6 -10 3 5 37 36 46 36 11z"/>
<path d="M1914 2321 c4 -5 -2 -14 -11 -20 -10 -6 -13 -11 -6 -11 6 0 15 5 18
11 5 7 14 5 29 -4 24 -16 62 -5 50 15 -5 7 -11 5 -20 -6 -11 -16 -13 -16 -26
1 -13 19 -44 31 -34 14z"/>
<path d="M1963 2208 c-9 -10 -11 -18 -6 -18 6 0 13 7 17 15 3 8 12 12 20 9 8
-3 16 -2 19 3 10 17 -34 8 -50 -9z"/>
<path d="M1873 2210 c6 -19 -29 -66 -35 -48 -3 8 -6 7 -10 -3 -5 -12 0 -15 20
-14 15 1 37 -5 49 -12 28 -18 38 -1 13 22 -11 10 -18 21 -15 25 2 4 -3 16 -11
26 -11 13 -14 14 -11 4z m12 -29 c-3 -6 5 -20 17 -32 l23 -21 -22 11 c-13 6
-23 17 -23 24 0 7 -4 6 -10 -3 -5 -8 -10 -10 -10 -4 0 5 5 15 12 22 14 14 21
16 13 3z"/>
<path d="M573 2175 c0 -8 4 -12 9 -9 5 3 6 10 3 15 -9 13 -12 11 -12 -6z"/>
<path d="M389 2169 c0 -2 -2 -12 -4 -21 -2 -10 3 -18 10 -18 7 0 12 7 11 15
-2 14 -15 33 -17 24z"/>
<path d="M1750 2129 c0 -11 -4 -17 -10 -14 -5 3 -10 1 -10 -4 0 -17 18 -13 29
7 8 13 10 14 11 2 0 -13 1 -13 10 0 6 9 5 17 -3 22 -20 13 -27 9 -27 -13z"/>
<path d="M681 2107 c-24 -12 -30 -29 -13 -35 5 -1 17 9 26 23 19 29 19 29 -13
12z"/>
<path d="M590 2087 c0 -9 -5 -17 -12 -19 -19 -7 1 -27 22 -23 11 2 20 -1 20
-7 0 -6 3 -9 6 -5 3 3 2 12 -2 19 -5 7 -9 19 -9 27 0 19 -25 27 -25 8z m17
-15 c0 -10 -6 -19 -13 -19 -9 0 -9 5 -1 19 7 10 13 18 14 18 1 0 1 -8 0 -18z"/>
<path d="M2000 2019 c-8 -5 -11 -9 -6 -9 5 0 3 -7 -4 -15 -7 -8 -9 -15 -4 -15
4 0 -1 -7 -12 -15 -25 -19 -11 -19 26 0 18 9 30 24 30 35 0 24 -12 31 -30 19z
m14 -27 c3 -5 -1 -9 -9 -9 -8 0 -12 4 -9 9 3 4 7 8 9 8 2 0 6 -4 9 -8z"/>
<path d="M670 1960 c0 -5 5 -10 11 -10 5 0 7 5 4 10 -3 6 -8 10 -11 10 -2 0
-4 -4 -4 -10z"/>
<path d="M965 1920 c3 -5 8 -10 11 -10 2 0 4 5 4 10 0 6 -5 10 -11 10 -5 0 -7
-4 -4 -10z"/>
<path d="M1006 1921 c-4 -5 -2 -12 3 -15 5 -4 12 -2 15 3 4 5 2 12 -3 15 -5 4
-12 2 -15 -3z"/>
<path d="M790 1840 c0 -5 5 -10 10 -10 6 0 10 5 10 10 0 6 -4 10 -10 10 -5 0
-10 -4 -10 -10z"/>
<path d="M430 1769 c0 -5 5 -7 10 -4 6 3 10 8 10 11 0 2 -4 4 -10 4 -5 0 -10
-5 -10 -11z"/>
<path d="M621 1727 c-21 -23 -21 -25 -4 -38 10 -7 15 -9 11 -5 -4 5 -2 16 4
24 11 12 20 42 14 42 -1 0 -12 -11 -25 -23z m19 -1 c0 -2 -8 -10 -17 -17 -16
-13 -17 -12 -4 4 13 16 21 21 21 13z"/>
<path d="M445 1640 c-3 -5 -1 -10 4 -10 6 0 11 5 11 10 0 6 -2 10 -4 10 -3 0
-8 -4 -11 -10z"/>
<path d="M2186 1572 c-4 -6 -12 -9 -19 -6 -21 8 -72 -57 -74 -94 -1 -28 1 -31
13 -21 8 6 14 8 14 3 0 -5 5 -2 10 6 5 8 7 23 4 32 -3 9 4 26 15 37 13 13 16
21 8 24 -7 3 0 4 16 3 20 -1 24 -4 15 -11 -7 -5 -14 -27 -15 -48 -3 -36 -2
-37 18 -26 16 8 18 13 9 19 -9 6 -7 10 9 15 12 3 19 11 16 16 -3 5 1 6 11 2
14 -5 13 -8 -7 -19 -14 -8 -18 -13 -10 -14 11 0 10 -4 -4 -14 -18 -13 -18 -14
3 -25 18 -10 20 -9 17 9 -2 11 2 20 8 20 8 0 8 3 -1 9 -11 7 -11 9 0 13 7 3
16 5 20 4 4 0 13 8 21 18 9 12 19 16 28 11 11 -6 11 -5 3 4 -22 24 -67 20 -96
-7 -29 -26 -35 -24 -19 7 11 19 -2 50 -13 33z m-52 -47 c-9 -14 -18 -25 -21
-25 -5 0 5 18 20 38 17 22 18 13 1 -13z m146 21 c0 -2 -6 -9 -14 -15 -11 -9
-16 -9 -22 0 -4 8 -3 9 4 5 7 -4 12 -2 12 3 0 6 5 11 10 11 6 0 10 -2 10 -4z
m-150 -60 c0 -3 -4 -8 -10 -11 -5 -3 -10 -1 -10 4 0 6 5 11 10 11 6 0 10 -2
10 -4z"/>
<path d="M2147 1511 c-2 -10 -1 -25 4 -32 5 -8 9 -9 10 -4 0 6 2 20 5 33 5 27
-12 30 -19 3z"/>
<path d="M334 1467 c0 -13 5 -24 12 -24 14 0 12 23 -2 37 -7 7 -10 2 -10 -13z"/>
<path d="M2073 1455 c-3 -9 -3 -18 -1 -21 3 -3 8 4 11 16 6 23 -1 27 -10 5z"/>
<path d="M230 1282 c0 -13 23 -32 38 -32 7 0 11 4 8 9 -4 5 0 12 6 15 7 3 2 3
-11 0 -16 -4 -21 -3 -17 5 4 6 0 11 -8 11 -9 0 -16 -4 -16 -8z"/>
<path d="M2297 1259 c-9 -5 -22 -7 -27 -4 -5 3 -7 0 -5 -7 8 -19 42 -20 49 -2
3 9 11 12 17 8 8 -4 9 -3 5 4 -9 14 -16 15 -39 1z"/>
<path d="M2040 1200 c0 -5 5 -10 10 -10 6 0 10 5 10 10 0 6 -4 10 -10 10 -5 0
-10 -4 -10 -10z"/>
<path d="M1916 1162 l-19 -27 24 22 c12 12 21 24 18 27 -2 2 -13 -8 -23 -22z"/>
<path d="M380 1170 c-8 -5 -18 -6 -24 -3 -5 3 -6 2 -3 -4 4 -6 0 -19 -7 -29
-11 -14 -12 -23 -3 -39 6 -11 10 -23 9 -27 -4 -15 17 -8 27 10 6 10 11 12 11
4 0 -7 5 -10 12 -6 7 4 8 3 4 -5 -4 -6 -12 -8 -18 -5 -6 4 -8 1 -6 -7 3 -8 11
-13 17 -11 7 1 9 -3 6 -9 -5 -8 -10 -8 -18 0 -20 20 -31 11 -12 -9 10 -11 14
-20 9 -20 -5 0 2 -9 16 -20 14 -11 32 -19 40 -19 9 0 6 5 -8 12 -12 7 -19 17
-15 22 4 4 -1 5 -12 2 -18 -6 -18 -5 3 12 14 13 18 22 12 26 -6 4 -9 13 -6 21
6 17 -27 36 -48 28 -19 -7 -20 -3 -5 30 7 14 15 23 19 21 4 -3 13 2 19 9 14
17 1 28 -19 16z"/>
<path d="M367 1116 c-4 -10 -1 -13 8 -9 8 3 12 9 9 14 -7 12 -11 11 -17 -5z"/>
<path d="M2334 1052 c18 -34 20 -46 8 -38 -4 2 -8 -4 -8 -15 0 -10 5 -19 10
-19 5 0 2 -6 -7 -12 -15 -12 -15 -15 0 -33 15 -20 15 -20 10 2 -3 13 -1 25 3
28 5 3 7 13 5 23 -1 9 2 25 7 36 7 13 7 16 -1 12 -6 -4 -11 -2 -11 3 0 6 5 11
12 11 12 0 2 15 -10 15 -4 0 -13 4 -20 9 -10 6 -9 0 2 -22z"/>
<path d="M1741 1039 c-22 -24 -24 -76 -3 -76 6 0 12 5 12 10 0 5 8 16 18 24
16 14 16 14 0 9 -25 -8 -33 12 -12 35 9 10 14 19 11 19 -3 0 -15 -10 -26 -21z"/>
<path d="M1674 925 c-14 -21 -15 -28 -4 -38 10 -9 11 -9 8 3 -3 8 1 23 10 33
8 9 13 20 9 23 -3 3 -13 -6 -23 -21z"/>
<path d="M564 878 c-5 -8 -2 -9 9 -5 11 4 17 1 17 -8 0 -17 17 -28 30 -20 6 4
1 15 -14 26 -28 22 -32 23 -42 7z"/>
<path d="M1617 876 c-4 -10 -1 -13 8 -9 8 3 12 9 9 14 -7 12 -11 11 -17 -5z"/>
<path d="M2247 856 c-43 -36 -41 -49 4 -33 17 7 32 21 36 35 8 34 2 34 -40 -2z
m24 -9 c-10 -9 -11 -8 -5 6 3 10 9 15 12 12 3 -3 0 -11 -7 -18z m-21 -11 c0
-2 -7 -7 -16 -10 -8 -3 -12 -2 -9 4 6 10 25 14 25 6z"/>
<path d="M1563 805 c0 -7 6 -11 14 -8 7 3 13 6 13 8 0 2 -6 5 -13 8 -8 3 -14
-1 -14 -8z"/>
<path d="M2346 772 c-4 -7 -13 -9 -19 -5 -7 4 -4 -5 6 -20 10 -15 15 -33 11
-39 -5 -7 -8 -30 -8 -52 -1 -22 -6 -41 -14 -44 -6 -2 -12 -8 -12 -13 0 -6 6
-7 13 -3 6 4 -3 -9 -20 -27 -18 -19 -33 -40 -33 -47 0 -7 -5 -12 -11 -12 -8 0
-8 -4 1 -15 14 -17 5 -35 -18 -34 -15 1 -15 2 1 6 29 8 19 18 -18 19 -19 1
-35 -3 -35 -8 0 -5 -4 -7 -9 -4 -4 3 -17 -1 -27 -9 -18 -14 -18 -14 5 -10 12
2 29 9 37 16 11 9 16 6 25 -15 11 -24 14 -25 29 -11 9 8 20 13 23 10 4 -3 5
-2 3 1 -2 3 5 15 16 26 11 11 17 26 14 33 -3 8 0 17 6 21 7 5 8 2 3 -7 -8 -12
-6 -12 8 0 9 7 15 17 12 21 -3 5 -1 11 5 15 6 4 8 11 5 16 -4 5 0 9 7 9 9 0 9
3 -2 10 -13 8 -13 10 1 10 13 0 16 8 14 38 -1 20 2 44 8 52 9 12 9 13 -3 3
-22 -20 -35 -15 -16 6 14 16 16 26 9 47 -6 19 -12 24 -17 16z m8 -28 c3 -8 2
-12 -4 -9 -6 3 -10 10 -10 16 0 14 7 11 14 -7z m3 -94 c1 -11 -2 -20 -7 -20
-6 0 -7 17 -1 38 3 8 7 -1 8 -18z m-26 -83 c-6 -8 -7 -18 -3 -22 4 -5 1 -5 -6
-1 -7 4 -21 2 -30 -4 -9 -7 -4 -1 11 14 30 27 47 35 28 13z m-41 -57 c0 -5 -5
-10 -11 -10 -5 0 -7 5 -4 10 3 6 8 10 11 10 2 0 4 -4 4 -10z"/>
<path d="M1475 721 c-3 -6 -1 -11 5 -11 6 0 9 -4 6 -8 -2 -4 10 -9 29 -10 18
-2 36 2 39 7 9 14 -8 21 -24 11 -10 -6 -20 -4 -31 6 -11 10 -19 12 -24 5z"/>
<path d="M1570 640 c0 -5 5 -10 10 -10 6 0 10 5 10 10 0 6 -4 10 -10 10 -5 0
-10 -4 -10 -10z"/>
<path d="M1555 610 c3 -5 8 -10 11 -10 2 0 4 5 4 10 0 6 -5 10 -11 10 -5 0 -7
-4 -4 -10z"/>
<path d="M1562 570 c7 -10 14 -18 15 -16 6 6 -9 36 -18 36 -5 0 -4 -9 3 -20z"/>
<path d="M1220 560 c0 -5 7 -10 16 -10 8 0 12 5 9 10 -3 6 -10 10 -16 10 -5 0
-9 -4 -9 -10z"/>
<path d="M1245 544 c-10 -8 -16 -14 -12 -14 4 0 3 -9 -3 -20 -6 -11 -7 -20 -3
-19 4 1 10 0 13 -1 3 -1 12 -3 20 -5 8 -2 23 -6 33 -10 10 -4 17 -3 17 5 0 6
-4 8 -10 5 -6 -3 -7 1 -4 9 4 10 -1 18 -11 22 -9 4 -14 13 -11 20 8 20 -7 24
-29 8z m12 -33 c0 -11 -5 -18 -9 -15 -4 3 -5 11 -1 19 7 21 12 19 10 -4z m28
-11 c3 -5 1 -10 -4 -10 -6 0 -11 5 -11 10 0 6 2 10 4 10 3 0 8 -4 11 -10z"/>
<path d="M1315 540 c-3 -6 -1 -10 6 -10 9 0 9 -3 0 -14 -12 -14 -5 -46 10 -46
13 0 11 14 -3 29 -11 10 -10 11 3 6 19 -7 21 16 3 33 -8 7 -15 8 -19 2z"/>
<path d="M1577 527 c14 -23 12 -39 -4 -33 -12 5 -13 4 -5 -7 7 -8 8 -18 4 -22
-4 -5 1 -5 11 -2 9 4 17 2 17 -3 0 -6 -4 -10 -9 -10 -10 0 -9 -19 1 -36 4 -6
3 -25 -2 -43 -6 -21 -5 -29 1 -25 6 3 17 -2 24 -12 16 -21 16 -20 20 13 1 12
-1 20 -5 18 -4 -3 -13 2 -20 10 -8 10 -9 15 -2 15 6 0 9 10 6 23 -3 12 -6 34
-7 49 -1 15 -6 30 -10 34 -4 4 -2 13 3 19 8 9 5 14 -10 18 -13 3 -18 1 -13 -6z
m44 -174 c13 -16 12 -17 -3 -4 -17 13 -22 21 -14 21 2 0 10 -8 17 -17z"/>
<path d="M1926 482 c-2 -4 -1 -14 3 -21 6 -10 10 -9 14 3 6 16 -8 32 -17 18z"/>
<path d="M1969 392 c-22 -44 -22 -45 -10 -38 6 4 11 2 11 -3 0 -6 -6 -11 -12
-11 -10 0 -9 -3 1 -9 11 -7 10 -12 -4 -29 -10 -11 -24 -18 -31 -15 -8 3 -14 0
-14 -7 0 -6 -4 -9 -9 -6 -5 3 -14 -1 -20 -8 -8 -10 -9 -16 -1 -21 5 -3 10 2
10 12 0 14 2 15 9 4 6 -9 11 -10 15 -2 4 6 12 9 17 6 5 -4 9 -3 9 2 0 15 61
73 71 68 5 -4 9 -2 9 3 0 17 -13 22 -29 10 -10 -8 -8 -3 4 12 11 14 20 26 21
28 1 1 7 -4 14 -13 11 -13 10 -14 -6 -8 -17 6 -17 5 -5 -10 16 -21 23 -16 26
18 2 14 -1 22 -6 19 -6 -3 -20 1 -33 10 -22 14 -24 13 -37 -12z m21 -13 c-7
-11 -14 -18 -17 -15 -3 3 0 12 7 21 18 21 23 19 10 -6z"/>
<path d="M1810 255 c-10 -12 -10 -15 4 -15 9 0 16 7 16 15 0 8 -2 15 -4 15 -2
0 -9 -7 -16 -15z"/>
</g>
</svg>
